<?xml version="1.0" standalone="no"?>
<!DOCTYPE svg PUBLIC "-//W3C//DTD SVG 1.1//EN" "http://www.w3.org/Graphics/SVG/1.1/DTD/svg11.dtd" >
<svg xmlns="http://www.w3.org/2000/svg" xmlns:xlink="http://www.w3.org/1999/xlink" version="1.1">
<metadata>
Created by FontForge 20170731 at Thu Mar 21 08:47:02 2019
 By Aleksey,,,
Copyright (c) 2018 by Lewis MacDonald. All rights reserved.
</metadata>
<defs>
<font id="Chromatica-Medium" horiz-adv-x="0" >
  <font-face 
    font-family="Chromatica Medium"
    font-weight="500"
    font-stretch="normal"
    units-per-em="1000"
    panose-1="2 0 6 0 0 0 0 0 0 0"
    ascent="800"
    descent="-200"
    x-height="499"
    cap-height="700"
    bbox="-486.492 -296 1219 993"
    underline-thickness="86"
    underline-position="-358"
    unicode-range="U+0020-274C"
  />
<missing-glyph horiz-adv-x="765" 
d="M664 700v-700h-563v700h563zM192 90h381v520h-381v-520z" />
    <glyph glyph-name=".notdef" horiz-adv-x="765" 
d="M664 700v-700h-563v700h563zM192 90h381v520h-381v-520z" />
    <glyph glyph-name=".null" 
 />
    <glyph glyph-name="nonmarkingreturn" horiz-adv-x="333" 
 />
    <glyph glyph-name="space" unicode=" " horiz-adv-x="323" 
 />
    <glyph glyph-name="exclam" unicode="!" horiz-adv-x="359" 
d="M225 700v-437h-92v437h92zM179 134q31 0 52 -20.5t21 -50.5q0 -31 -21 -52t-52 -21q-32 0 -53 21t-21 52q0 30 21.5 50.5t52.5 20.5z" />
    <glyph glyph-name="quotedbl" unicode="&#x22;" horiz-adv-x="491" 
d="M207 700l-8 -246h-80l-8 246h96zM379 700l-7 -246h-80l-8 246h95z" />
    <glyph glyph-name="numbersign" unicode="#" horiz-adv-x="874" 
d="M791 444h-169l-6 -187h168l-3 -86h-168l-6 -171h-88l6 171h-189l-6 -171h-87l6 171h-168l3 86h168l6 187h-167l3 85h167l6 171h87l-6 -171h189l6 171h88l-6 -171h169zM528 257l6 187h-189l-6 -187h189z" />
    <glyph glyph-name="dollar" unicode="$" horiz-adv-x="534" 
d="M485 193q0 -75 -47 -127t-125 -65v-111h-75v108q-115 11 -197 105l66 64q72 -81 159 -81q55 0 90.5 29.5t35.5 75.5q0 57 -81 101l-116 58q-126 62 -126 172q0 71 46.5 120t122.5 58v110h75v-111q90 -14 159 -87l-59 -64q-64 67 -143 67q-47 0 -77.5 -25.5t-30.5 -64.5
q0 -52 79 -94l118 -59q126 -64 126 -179z" />
    <glyph glyph-name="percent" unicode="%" horiz-adv-x="889" 
d="M221 369q-74 0 -123 48.5t-49 121.5t49.5 122t122.5 49q74 0 124 -49t50 -122t-50 -121.5t-124 -48.5zM150 0l488 700h101l-489 -700h-100zM221 449q40 0 65 25t25 65t-25 65t-65 25q-39 0 -64.5 -25t-25.5 -65t25.5 -65t64.5 -25zM667 -10q-74 0 -123.5 48.5
t-49.5 121.5t49.5 122t123.5 49t123.5 -49t49.5 -122t-49.5 -121.5t-123.5 -48.5zM666 71q40 0 65.5 25t25.5 64q0 40 -25.5 65.5t-65.5 25.5q-39 0 -64 -25.5t-25 -65.5q0 -39 25 -64t64 -25z" />
    <glyph glyph-name="ampersand" unicode="&#x26;" horiz-adv-x="710" 
d="M666 316l-156 -167l133 -149h-114l-77 86q-90 -96 -199 -96q-85 0 -140.5 51.5t-55.5 131.5q0 107 125 185l16 10l-7 8q-78 86 -78 167q0 72 50.5 119.5t125.5 47.5t125 -47t50 -118q0 -104 -120 -179l-18 -11l127 -142l154 165zM260 429l13 -15l24 15q80 50 80 112
q0 39 -25 64.5t-64 25.5q-37 0 -61.5 -25t-24.5 -62q0 -50 58 -115zM256 79q75 0 139 70l-143 160l-27 -17q-76 -46 -76 -114q0 -42 30.5 -70.5t76.5 -28.5z" />
    <glyph glyph-name="quotesingle" unicode="'" horiz-adv-x="318" 
d="M207 700l-8 -246h-80l-8 246h96z" />
    <glyph glyph-name="parenleft" unicode="(" horiz-adv-x="449" 
d="M397 -11l-27 -86q-144 53 -226.5 165t-82.5 255q0 144 82.5 256t226.5 165l27 -87q-113 -42 -177.5 -130.5t-64.5 -203.5q0 -114 64.5 -202.5t177.5 -131.5z" />
    <glyph glyph-name="parenright" unicode=")" horiz-adv-x="449" 
d="M52 -11q113 43 177.5 131.5t64.5 202.5q0 115 -64.5 203.5t-177.5 130.5l27 87q145 -53 227 -165t82 -256q0 -143 -82 -255t-227 -165z" />
    <glyph glyph-name="asterisk" unicode="*" horiz-adv-x="583" 
d="M512 506l-155 -44l100 -127l-75 -55l-91 135l-90 -134l-75 54l99 127l-154 44l29 88l151 -56l-6 162h93l-6 -161l151 55z" />
    <glyph glyph-name="plus" unicode="+" horiz-adv-x="547" 
d="M483 365v-90h-165v-166h-90v166h-165v90h165v164h90v-164h165z" />
    <glyph glyph-name="comma" unicode="," horiz-adv-x="334" 
d="M170 134q32 0 54 -22.5t22 -65.5q0 -82 -102 -187l-50 41q49 51 70 100q-24 -5 -45.5 14.5t-21.5 49.5q0 29 21 49.5t52 20.5z" />
    <glyph glyph-name="hyphen" unicode="-" horiz-adv-x="451" 
d="M387 365v-90h-324v90h324z" />
    <glyph glyph-name="period" unicode="." horiz-adv-x="323" 
d="M162 134q31 0 52 -20.5t21 -50.5q0 -31 -21 -52t-52 -21q-32 0 -53 21t-21 52q0 30 21.5 50.5t52.5 20.5z" />
    <glyph glyph-name="slash" unicode="/" horiz-adv-x="444" 
d="M22 0l302 700h98l-302 -700h-98z" />
    <glyph glyph-name="zero" unicode="0" horiz-adv-x="669" 
d="M335 -10q-122 0 -193 97t-71 263t71 263t193 97t193 -97t71 -263t-71 -263t-193 -97zM335 82q79 0 124.5 72t45.5 196t-45.5 196t-124.5 72t-125 -72t-46 -196t46 -196t125 -72z" />
    <glyph glyph-name="one" unicode="1" horiz-adv-x="409" 
d="M298 700v-700h-92v609h-160v91h252z" />
    <glyph glyph-name="two" unicode="2" horiz-adv-x="585" 
d="M54 0l285 349q71 87 71 150q0 54 -33.5 87t-86.5 33q-60 0 -95 -41t-36 -108l-93 7q0 104 62 168.5t162 64.5q95 0 155 -57t60 -146q0 -94 -94 -206l-176 -210h280l1 -91h-462z" />
    <glyph glyph-name="three" unicode="3" horiz-adv-x="587" 
d="M406 365q109 -51 109 -170q0 -88 -64.5 -146.5t-161.5 -58.5q-101 0 -165 62t-64 161l92 5q1 -62 38 -100t98 -38q58 0 95.5 34.5t37.5 88.5t-37.5 85.5t-102.5 31.5h-18v89h18q58 0 91.5 27.5t33.5 74.5q0 48 -33 78.5t-84 30.5q-54 0 -88 -33t-35 -90l-92 5
q0 92 60 150t154 58q92 0 152 -54t60 -137q0 -104 -94 -154z" />
    <glyph glyph-name="four" unicode="4" horiz-adv-x="662" 
d="M622 349v-91h-192v-258h-92v258h-281l92 442h92l-76 -351h173v219h92v-219h192z" />
    <glyph glyph-name="five" unicode="5" horiz-adv-x="612" 
d="M315 451q102 0 168 -65t66 -164q0 -100 -69 -166t-173 -66q-102 0 -169 63t-67 160l92 7q1 -62 41.5 -101t103.5 -39q64 0 104.5 39t40.5 101q0 63 -41.5 102t-107.5 39q-78 0 -131 -49l-74 34l24 354h383v-90h-303l-16 -194q56 35 128 35z" />
    <glyph glyph-name="six" unicode="6" horiz-adv-x="587" 
d="M307 451q92 0 159 -65.5t67 -160.5q0 -101 -69 -168t-172 -67q-101 0 -168.5 64.5t-67.5 161.5q0 80 75 206l165 278h105l-156 -257q32 8 62 8zM292 79q64 0 105.5 40.5t41.5 102.5q0 61 -41.5 101.5t-104.5 40.5q-62 0 -103.5 -41t-41.5 -103q0 -61 41 -101t103 -40z
" />
    <glyph glyph-name="seven" unicode="7" horiz-adv-x="569" 
d="M523 700l-240 -700h-97l210 609h-350v91h477z" />
    <glyph glyph-name="eight" unicode="8" horiz-adv-x="613" 
d="M430 363q53 -24 83 -68t30 -100q0 -86 -68 -145.5t-169 -59.5t-168.5 59.5t-67.5 145.5q0 56 30 100t83 68q-46 24 -72.5 64t-26.5 90q0 81 64 137t159 56q96 0 159 -56t63 -137q0 -50 -26.5 -90t-72.5 -64zM306 623q-55 0 -92 -31.5t-37 -78.5t37 -78.5t92 -31.5
q56 0 93 31.5t37 78.5t-37 78.5t-93 31.5zM306 77q62 0 103.5 35t41.5 87t-41.5 86.5t-103.5 34.5t-103 -34.5t-41 -86.5t41 -87t103 -35z" />
    <glyph glyph-name="nine" unicode="9" horiz-adv-x="586" 
d="M294 710q101 0 168.5 -64.5t67.5 -161.5q0 -80 -75 -206l-165 -278h-105l156 258q-30 -9 -63 -9q-91 0 -158 65.5t-67 160.5q0 101 69 168t172 67zM147 478q0 -61 41.5 -101.5t104.5 -40.5q62 0 103.5 41t41.5 103q0 61 -41 101t-103 40q-64 0 -105.5 -40.5t-41.5 -102.5
z" />
    <glyph glyph-name="colon" unicode=":" horiz-adv-x="350" 
d="M176 434q31 0 52 -20.5t21 -50.5q0 -31 -21 -52t-52 -21q-32 0 -53 21t-21 52q0 30 21.5 50.5t52.5 20.5zM176 134q31 0 52 -20.5t21 -50.5q0 -31 -21 -52t-52 -21q-32 0 -53 21t-21 52q0 30 21.5 50.5t52.5 20.5z" />
    <glyph glyph-name="semicolon" unicode=";" horiz-adv-x="356" 
d="M179 290q-31 0 -52 21t-21 52q0 30 21 50.5t52 20.5t52 -20.5t21 -50.5q0 -31 -21 -52t-52 -21zM180 134q32 0 54 -22.5t22 -65.5q0 -82 -102 -187l-50 41q49 51 70 100q-24 -5 -45.5 14.5t-21.5 49.5q0 29 21 49.5t52 20.5z" />
    <glyph glyph-name="less" unicode="&#x3c;" horiz-adv-x="558" 
d="M474 548v-108l-309 -119l309 -120v-108l-421 179v97z" />
    <glyph glyph-name="equal" unicode="=" horiz-adv-x="547" 
d="M483 461v-90h-420v90h420zM483 268v-90h-420v90h420z" />
    <glyph glyph-name="greater" unicode="&#x3e;" horiz-adv-x="558" 
d="M84 548l420 -179v-97l-420 -179v108l308 120l-308 119v108z" />
    <glyph glyph-name="question" unicode="?" horiz-adv-x="485" 
d="M227 710q82 0 135.5 -46t53.5 -116q0 -57 -37 -100.5t-102 -65.5l-1 -119h-93v175q62 7 100 35t38 68q0 34 -27 55t-71 21q-65 0 -118 -47l-46 77q71 63 168 63zM230 134q31 0 52 -20.5t21 -50.5q0 -31 -21 -52t-52 -21q-32 0 -53 21t-21 52q0 30 21.5 50.5t52.5 20.5z
" />
    <glyph glyph-name="at" unicode="@" horiz-adv-x="883" 
d="M536 464h84v-207q0 -30 15 -47t40 -17q35 0 54.5 35t19.5 91q0 121 -85.5 202t-214.5 81q-134 0 -224 -89.5t-90 -224.5q0 -134 87 -223t223 -89q123 0 241 79l36 -69q-124 -88 -274 -88q-174 0 -285 111.5t-111 278.5q0 168 113.5 280t284.5 112q162 0 271.5 -102.5
t109.5 -255.5q0 -93 -42.5 -150t-114.5 -57q-70 0 -109 51q-43 -73 -139 -73q-80 0 -132 54.5t-52 135.5t52 135t129 54q70 0 113 -49v41zM437 173q62 0 102 51q-3 15 -3 30v89q-33 50 -98 50q-49 0 -81 -31.5t-32 -78.5t32.5 -78.5t79.5 -31.5z" />
    <glyph glyph-name="A" unicode="A" horiz-adv-x="760" 
d="M628 0l-87 211h-323l-87 -211h-98l297 706h100l298 -706h-100zM254 299h251l-125 306z" />
    <glyph glyph-name="B" unicode="B" horiz-adv-x="634" 
d="M458 365q117 -42 117 -171q0 -89 -59 -141.5t-160 -52.5h-255v700h240q96 0 152.5 -49.5t56.5 -132.5q0 -109 -92 -153zM192 613v-210h150q55 0 86 28t31 78q0 49 -31 76.5t-86 27.5h-150zM357 87q59 0 93.5 30.5t34.5 84.5t-34.5 84.5t-93.5 30.5h-165v-230h165z" />
    <glyph glyph-name="C" unicode="C" horiz-adv-x="743" 
d="M624 521q-76 95 -208 95q-116 0 -192.5 -76t-76.5 -191q0 -113 76.5 -189t191.5 -76q70 0 128 29.5t95 80.5l71 -64q-51 -65 -127 -102.5t-167 -37.5q-154 0 -258.5 103.5t-104.5 255.5q0 154 104.5 257.5t259.5 103.5q168 0 275 -120z" />
    <glyph glyph-name="D" unicode="D" horiz-adv-x="733" 
d="M101 0v700h233q149 0 248 -100t99 -250t-99 -250t-248 -100h-233zM193 90h139q113 0 185 73t72 187t-72 187t-185 73h-139v-520z" />
    <glyph glyph-name="E" unicode="E" horiz-adv-x="560" 
d="M101 0v700h387v-90h-295v-198h287v-91h-287v-231h295v-90h-387z" />
    <glyph glyph-name="F" unicode="F" horiz-adv-x="540" 
d="M101 0v700h387v-90h-295v-218h286v-90h-286v-302h-92z" />
    <glyph glyph-name="G" unicode="G" horiz-adv-x="772" 
d="M446 407h263v-282q-51 -63 -127 -99t-167 -36q-154 0 -258.5 103.5t-104.5 255.5q0 154 104.5 257.5t259.5 103.5q168 0 275 -120l-67 -69q-76 95 -208 95q-116 0 -192.5 -76t-76.5 -191q0 -113 76.5 -189t191.5 -76q123 0 202 82v150h-171v91z" />
    <glyph glyph-name="H" unicode="H" horiz-adv-x="766" 
d="M665 700v-700h-92v321h-380v-321h-92v700h92v-288h380v288h92z" />
    <glyph glyph-name="I" unicode="I" horiz-adv-x="294" 
d="M193 700v-700h-92v700h92z" />
    <glyph glyph-name="J" unicode="J" horiz-adv-x="595" 
d="M509 700v-469q0 -107 -65 -174t-169 -67q-105 0 -171.5 66t-68.5 173l92 7q2 -69 43 -111.5t104 -42.5q64 0 103.5 41t39.5 108v469h92z" />
    <glyph glyph-name="K" unicode="K" horiz-adv-x="653" 
d="M618 0h-110l-229 362l-86 -90v-272h-92v700h92v-308l282 308h126l-256 -269z" />
    <glyph glyph-name="L" unicode="L" horiz-adv-x="554" 
d="M193 700v-610h326v-90h-418v700h92z" />
    <glyph glyph-name="M" unicode="M" horiz-adv-x="883" 
d="M663 700h120v-700h-93v563l-205 -503h-87l-205 501v-561h-92v700h119l222 -536z" />
    <glyph glyph-name="N" unicode="N" horiz-adv-x="786" 
d="M686 0h-72l-421 534v-534h-92v700h73l420 -534v534h92v-700z" />
    <glyph glyph-name="O" unicode="O" horiz-adv-x="832" 
d="M416 -10q-155 0 -259.5 103t-104.5 257t105.5 257t260.5 103q154 0 258 -103.5t104 -256.5t-104.5 -256.5t-259.5 -103.5zM416 84q115 0 191.5 76t76.5 190t-76 190t-190 76q-116 0 -193.5 -76t-77.5 -190t77 -190t192 -76z" />
    <glyph glyph-name="P" unicode="P" horiz-adv-x="623" 
d="M101 0v700h244q107 0 171 -60t64 -160q0 -101 -64 -161t-171 -60h-152v-259h-92zM193 351h149q67 0 105 34t38 95t-38 94.5t-105 33.5h-149v-257z" />
    <glyph glyph-name="Q" unicode="Q" horiz-adv-x="831" 
d="M779 350q0 -128 -75.5 -223.5t-195.5 -125.5l29 -162l-91 -15l-29 166h-2q-155 0 -259 103t-104 257t105 257t261 103q154 0 257.5 -103.5t103.5 -256.5zM415 84q115 0 192 76t77 190t-76 190t-190 76q-116 0 -193.5 -76t-77.5 -190t76.5 -190t191.5 -76z" />
    <glyph glyph-name="R" unicode="R" horiz-adv-x="650" 
d="M596 0h-110l-172 265h-121v-265h-92v700h254q107 0 171 -59t64 -158q0 -83 -46 -139t-126 -73zM193 609v-257h161q66 0 104 34t38 95q0 60 -38 94t-104 34h-161z" />
    <glyph glyph-name="S" unicode="S" horiz-adv-x="543" 
d="M270 -10q-135 0 -229 109l67 64q74 -83 162 -83q56 0 92.5 30.5t36.5 77.5q0 59 -82 103l-119 60q-129 64 -129 175q0 80 57.5 132t148.5 52q121 0 206 -92l-60 -65q-67 68 -146 68q-48 0 -79 -26t-31 -65q0 -54 80 -96l120 -61q129 -64 129 -183q0 -88 -62.5 -144
t-161.5 -56z" />
    <glyph glyph-name="T" unicode="T" horiz-adv-x="576" 
d="M541 700v-90h-207v-610h-92v610h-207v90h506z" />
    <glyph glyph-name="U" unicode="U" horiz-adv-x="741" 
d="M370 -10q-131 0 -209 76.5t-78 204.5v429h92v-430q0 -87 53 -137.5t143 -50.5t142.5 50.5t52.5 137.5v430h92v-429q0 -128 -78.5 -204.5t-209.5 -76.5z" />
    <glyph glyph-name="V" unicode="V" horiz-adv-x="718" 
d="M318 0l-285 700h103l224 -566l224 566h101l-284 -700h-83z" />
    <glyph glyph-name="W" unicode="W" horiz-adv-x="943" 
d="M238 0l-199 700h97l139 -525l161 493h73l160 -494l140 526h95l-198 -700h-62l-172 512l-172 -512h-62z" />
    <glyph glyph-name="X" unicode="X" horiz-adv-x="687" 
d="M39 0l251 353l-247 347h112l188 -268l189 268h111l-247 -347l252 -353h-112l-192 273l-193 -273h-112z" />
    <glyph glyph-name="Y" unicode="Y" horiz-adv-x="637" 
d="M609 700l-244 -365v-335h-92v333l-245 367h112l178 -273l179 273h112z" />
    <glyph glyph-name="Z" unicode="Z" horiz-adv-x="575" 
d="M523 700l-325 -609h323v-91h-476l324 609h-308v91h462z" />
    <glyph glyph-name="bracketleft" unicode="[" horiz-adv-x="442" 
d="M382 647h-190v-647h190v-89h-281v825h281v-89z" />
    <glyph glyph-name="backslash" unicode="\" horiz-adv-x="444" 
d="M422 0h-98l-302 700h98z" />
    <glyph glyph-name="bracketright" unicode="]" horiz-adv-x="442" 
d="M341 736v-825h-281v89h190v647h-190v89h281z" />
    <glyph glyph-name="underscore" unicode="_" horiz-adv-x="682" 
d="M577 -60v-90h-473v90h473z" />
    <glyph glyph-name="grave" unicode="`" horiz-adv-x="600" 
d="M290 741l62 -147h-92l-74 147h104z" />
    <glyph glyph-name="a" unicode="a" horiz-adv-x="638" 
d="M461 499h91v-499h-91v62q-62 -72 -164 -72q-107 0 -179.5 74.5t-72.5 186.5q0 111 72 184.5t180 73.5q101 0 164 -70v60zM309 80q49 0 89 22t63 57v183q-23 35 -63.5 56t-87.5 21q-74 0 -123.5 -48t-49.5 -121t49.5 -121.5t122.5 -48.5z" />
    <glyph glyph-name="b" unicode="b" horiz-adv-x="644" 
d="M350 509q107 0 179 -73.5t72 -184.5q0 -112 -72 -186.5t-180 -74.5q-101 0 -163 71v-61h-91v750h91v-310q63 69 164 69zM337 80q74 0 123 48.5t49 121.5t-49 121t-123 48q-48 0 -88 -20.5t-63 -56.5v-183q22 -35 62.5 -57t88.5 -22z" />
    <glyph glyph-name="c" unicode="c" horiz-adv-x="556" 
d="M446 352q-50 64 -136 64q-73 0 -122 -47.5t-49 -119.5q0 -71 48.5 -118.5t121.5 -47.5q96 0 147 74l71 -62q-37 -49 -94.5 -77t-124.5 -28q-112 0 -188 74.5t-76 184.5q0 111 77 185.5t188 74.5q127 0 203 -90z" />
    <glyph glyph-name="d" unicode="d" horiz-adv-x="645" 
d="M458 750h91v-750h-91v61q-62 -71 -163 -71q-107 0 -179.5 74.5t-72.5 186.5q0 111 72 184.5t180 73.5q101 0 163 -69v310zM307 80q48 0 88.5 21.5t62.5 56.5v185q-22 35 -63 55.5t-88 20.5q-74 0 -123 -48t-49 -121t49.5 -121.5t122.5 -48.5z" />
    <glyph glyph-name="e" unicode="e" horiz-adv-x="592" 
d="M548 252l-1 -21h-411q7 -67 57 -109t123 -42q83 0 160 74l60 -69q-98 -95 -218 -95q-119 0 -195 73.5t-76 188.5q0 112 73 184.5t182 72.5q108 0 177 -72.5t69 -184.5zM302 426q-59 0 -101.5 -32.5t-58.5 -87.5h313q-14 56 -54.5 88t-98.5 32z" />
    <glyph glyph-name="f" unicode="f" horiz-adv-x="395" 
d="M363 499v-88h-147v-411h-91v411h-91v88h91v78q0 85 45.5 134t125.5 49q29 0 48 -5l-8 -89q-15 4 -35 4q-39 0 -62 -25.5t-23 -69.5v-76h147z" />
    <glyph glyph-name="g" unicode="g" horiz-adv-x="657" 
d="M472 499h91v-533q0 -106 -68 -171t-175 -65q-104 0 -174 61.5t-77 160.5l91 9q5 -62 49.5 -102t111.5 -40t109 40t42 107v108q-62 -69 -164 -69q-107 0 -179.5 73t-72.5 181q0 107 72 178.5t180 71.5q101 0 164 -67v57zM319 95q49 0 89.5 21t63.5 55v174q-23 34 -64 54
t-89 20q-73 0 -121.5 -46t-48.5 -115t48.5 -116t121.5 -47z" />
    <glyph glyph-name="h" unicode="h" horiz-adv-x="617" 
d="M354 509q90 0 145.5 -56.5t55.5 -159.5v-293h-91v287q0 64 -36.5 98t-92.5 34q-45 0 -85.5 -19.5t-63.5 -53.5v-346h-91v750h91v-315q59 74 168 74z" />
    <glyph glyph-name="i" unicode="i" horiz-adv-x="274" 
d="M139 744q31 0 52 -20.5t21 -50.5q0 -31 -21 -52t-52 -21q-32 0 -53 21t-21 52q0 30 21.5 50.5t52.5 20.5zM92 0v499h91v-499h-91z" />
    <glyph glyph-name="j" unicode="j" horiz-adv-x="306" 
d="M160 744q31 0 52 -20.5t21 -50.5q0 -31 -21 -52t-52 -21q-32 0 -53 21t-21 52q0 30 21.5 50.5t52.5 20.5zM116 499h91v-516q0 -85 -45.5 -134t-125.5 -49q-29 0 -49 5l8 89q15 -4 36 -4q39 0 62 25.5t23 69.5v514z" />
    <glyph glyph-name="k" unicode="k" horiz-adv-x="588" 
d="M559 0h-109l-168 249l-96 -93v-156h-91v750h91v-483l236 232h116l-190 -185z" />
    <glyph glyph-name="l" unicode="l" horiz-adv-x="281" 
d="M95 0v750h91v-750h-91z" />
    <glyph glyph-name="m" unicode="m" horiz-adv-x="913" 
d="M647 509q86 0 140 -55t54 -151v-303h-91v294q0 59 -31.5 92t-82.5 33q-41 0 -75.5 -21t-53.5 -57q2 -24 2 -38v-303h-91v294q0 59 -31.5 92t-82.5 33q-39 0 -73.5 -20t-53.5 -54v-345h-91v499h91v-63q52 73 153 73q100 0 148 -80q64 80 169 80z" />
    <glyph glyph-name="n" unicode="n" horiz-adv-x="617" 
d="M346 509q89 0 144.5 -56.5t55.5 -159.5v-293h-91v287q0 64 -36.5 98t-92.5 34q-45 0 -85.5 -19.5t-63.5 -54.5v-345h-91v499h91v-66q58 76 169 76z" />
    <glyph glyph-name="o" unicode="o" horiz-adv-x="616" 
d="M308 509q113 0 188.5 -74t75.5 -185t-75.5 -185.5t-188.5 -74.5t-188.5 74.5t-75.5 185.5t75.5 185t188.5 74zM308 419q-74 0 -123 -48t-49 -121t49 -121.5t123 -48.5t123 48.5t49 121.5t-49 121t-123 48z" />
    <glyph glyph-name="p" unicode="p" horiz-adv-x="644" 
d="M350 509q107 0 179 -73.5t72 -184.5q0 -112 -72 -186.5t-180 -74.5q-101 0 -163 71v-321h-91v759h91v-59q63 69 164 69zM337 80q74 0 123 48.5t49 121.5t-49 121t-123 48q-48 0 -88 -20.5t-63 -56.5v-183q22 -35 62.5 -57t88.5 -22z" />
    <glyph glyph-name="q" unicode="q" horiz-adv-x="644" 
d="M458 499h91v-759h-91v321q-62 -71 -163 -71q-108 0 -180 74.5t-72 186.5q0 111 72 184.5t179 73.5q101 0 164 -69v59zM307 80q48 0 88 22t63 57v183q-23 36 -63 56.5t-88 20.5q-74 0 -123 -48t-49 -121t49 -121.5t123 -48.5z" />
    <glyph glyph-name="r" unicode="r" horiz-adv-x="405" 
d="M381 418q-56 -3 -115.5 -30.5t-88.5 -69.5v-318h-91v499h91v-84q31 42 84 67t112 28z" />
    <glyph glyph-name="s" unicode="s" horiz-adv-x="451" 
d="M229 -10q-113 0 -192 79l58 66q62 -60 134 -60q38 0 61 18t23 47q0 44 -61 65l-74 25q-116 38 -116 137q0 63 44.5 102.5t118.5 39.5q104 0 171 -70l-53 -62q-53 49 -117 49q-32 0 -52 -15.5t-20 -39.5q0 -42 66 -64l66 -21q119 -40 119 -143q0 -70 -49 -111.5
t-127 -41.5z" />
    <glyph glyph-name="t" unicode="t" horiz-adv-x="504" 
d="M410 132l58 -68q-77 -74 -162 -74q-81 0 -128.5 46.5t-47.5 129.5v245h-98v88h98v175h91v-175h229v-88h-229v-240q0 -45 22.5 -68t61.5 -23q50 0 105 52z" />
    <glyph glyph-name="u" unicode="u" horiz-adv-x="618" 
d="M440 499h91v-499h-91v66q-58 -76 -169 -76q-89 0 -144.5 56.5t-55.5 159.5v293h91v-287q0 -64 36.5 -98t92.5 -34q45 0 85.5 19.5t63.5 54.5v345z" />
    <glyph glyph-name="v" unicode="v" horiz-adv-x="588" 
d="M461 499h101l-222 -499h-91l-222 499h101l166 -389z" />
    <glyph glyph-name="w" unicode="w" horiz-adv-x="816" 
d="M685 499h97l-150 -499h-89l-135 364l-135 -364h-89l-150 499h100l104 -379l130 369h83l129 -370z" />
    <glyph glyph-name="x" unicode="x" horiz-adv-x="577" 
d="M31 0l203 259l-188 240h115l128 -170l126 170h116l-189 -240l204 -259h-116l-142 189l-142 -189h-115z" />
    <glyph glyph-name="y" unicode="y" horiz-adv-x="643" 
d="M457 499h91v-533q0 -106 -66 -171t-172 -65q-103 0 -171.5 61.5t-75.5 160.5l91 9q6 -63 48.5 -102.5t108.5 -39.5q65 0 105.5 40t40.5 107v123q-57 -74 -168 -74q-89 0 -144.5 57t-55.5 160v267h91v-261q0 -65 36.5 -99t92.5 -34q44 0 84 19.5t64 53.5v321z" />
    <glyph glyph-name="z" unicode="z" horiz-adv-x="513" 
d="M192 83h274v-83h-421l270 417h-261v82h408z" />
    <glyph glyph-name="braceleft" unicode="{" horiz-adv-x="456" 
d="M154 306q51 -6 74 -47t4 -95l-21 -62q-14 -44 6.5 -72t66.5 -28h112v-91h-116q-96 0 -141 57.5t-18 145.5l17 60q12 39 -7 59.5t-68 28.5v123q99 12 76 87l-19 61q-27 88 18.5 145.5t141.5 57.5h116v-91h-112q-46 0 -66.5 -28t-6.5 -72l21 -65q18 -53 -4.5 -93.5
t-73.5 -44.5v-36z" />
    <glyph glyph-name="bar" unicode="|" horiz-adv-x="292" 
d="M192 700v-900h-91v900h91z" />
    <glyph glyph-name="braceright" unicode="}" horiz-adv-x="456" 
d="M303 306v36q-52 4 -74.5 44.5t-4.5 93.5l21 65q14 44 -6.5 72t-66.5 28h-111v91h115q97 0 142.5 -57.5t17.5 -145.5l-19 -61q-23 -75 77 -87v-123q-50 -8 -69 -28.5t-7 -59.5l18 -60q27 -88 -18.5 -145.5t-141.5 -57.5h-115v91h111q46 0 66.5 28t6.5 72l-20 62
q-19 54 4 95t74 47z" />
    <glyph glyph-name="exclamdown" unicode="&#xa1;" horiz-adv-x="360" 
d="M179 406q-31 0 -51.5 20.5t-20.5 50.5q0 31 20.5 52t51.5 21q32 0 53 -20.5t21 -52.5q0 -30 -21 -50.5t-53 -20.5zM134 -160v437h92v-437h-92z" />
    <glyph glyph-name="cent" unicode="&#xa2;" horiz-adv-x="581" 
d="M538 99q-67 -88 -180 -102v-107h-74v108q-95 13 -157 83t-62 168q0 97 62 167.5t157 84.5v108h74v-107q101 -12 165 -86l-65 -66q-48 63 -132 63q-72 0 -120 -47t-48 -117t47.5 -116t119.5 -46q93 0 144 72z" />
    <glyph glyph-name="sterling" unicode="&#xa3;" horiz-adv-x="658" 
d="M210 271l-19 -181h395v-90h-494l28 271h-75v80h83l14 134q11 102 73.5 163.5t157.5 61.5q96 0 157.5 -60.5t63.5 -157.5l-91 -6q-2 59 -39 96t-93 37t-93.5 -36.5t-44.5 -97.5l-14 -134h218v-80h-227z" />
    <glyph glyph-name="yen" unicode="&#xa5;" horiz-adv-x="668" 
d="M625 700l-221 -331h149v-69h-172v-100h172v-70h-172v-130h-92v130h-174v70h174v100h-174v69h150l-221 331h112l178 -273l179 273h112z" />
    <glyph glyph-name="dieresis" unicode="&#xa8;" horiz-adv-x="600" 
d="M206 749q28 0 47 -18.5t19 -45.5q0 -28 -19 -46.5t-47 -18.5q-29 0 -47.5 18.5t-18.5 46.5q0 27 19 45.5t47 18.5zM398 749q28 0 47 -18.5t19 -45.5q0 -28 -19 -46.5t-47 -18.5q-29 0 -47.5 18.5t-18.5 46.5q0 27 19 45.5t47 18.5z" />
    <glyph glyph-name="copyright" unicode="&#xa9;" horiz-adv-x="842" 
d="M421 -10q-154 0 -256.5 103t-102.5 257t102.5 257t256.5 103t256.5 -103t102.5 -257t-102.5 -257t-256.5 -103zM421 43q131 0 218.5 87.5t87.5 219.5t-87.5 219.5t-218.5 87.5t-218.5 -87.5t-87.5 -219.5t87.5 -219.5t218.5 -87.5zM431 134q-94 0 -157 62t-63 154
q0 91 64 153.5t157 62.5q101 0 166 -73l-47 -49q-44 56 -119 56q-65 0 -109.5 -43t-44.5 -107t44 -107t109 -43q80 0 128 64l51 -44q-68 -86 -179 -86z" />
    <glyph glyph-name="guillemotleft" unicode="&#xab;" horiz-adv-x="501" 
d="M256 493l-113 -173l113 -173l-66 -42l-142 215l142 215zM438 493l-114 -173l114 -173l-67 -42l-142 215l142 215z" />
    <glyph glyph-name="registered" unicode="&#xae;" horiz-adv-x="842" 
d="M421 710q154 0 256.5 -103t102.5 -257t-102.5 -257t-256.5 -103t-256.5 103t-102.5 257t102.5 257t256.5 103zM421 43q131 0 218.5 87.5t87.5 219.5t-87.5 219.5t-218.5 87.5t-218.5 -87.5t-87.5 -219.5t87.5 -219.5t218.5 -87.5zM589 429q0 -49 -27 -83t-74 -45
l102 -153h-74l-97 148h-68v-148h-62v413h156q65 0 104.5 -36t39.5 -96zM351 501v-146h93q38 0 60.5 19t22.5 54q0 34 -22.5 53.5t-60.5 19.5h-93z" />
    <glyph glyph-name="macron" unicode="&#xaf;" horiz-adv-x="600" 
d="M426 707v-80h-252v80h252z" />
    <glyph glyph-name="acute" unicode="&#xb4;" horiz-adv-x="600" 
d="M310 741h104l-74 -147h-92z" />
    <glyph glyph-name="periodcentered" unicode="&#xb7;" horiz-adv-x="322" 
d="M161 386q31 0 51.5 -20.5t20.5 -50.5q0 -31 -20.5 -52t-51.5 -21q-32 0 -53 20.5t-21 52.5q0 30 21 50.5t53 20.5z" />
    <glyph glyph-name="cedilla" unicode="&#xb8;" horiz-adv-x="600" 
d="M318 -73q40 0 65.5 -26t25.5 -65q0 -43 -28.5 -70t-72.5 -27q-43 0 -72.5 25t-32.5 62l65 8q1 -15 12 -25t27 -10q18 0 29 10.5t11 27.5t-11 28t-29 11q-21 0 -37 -14l-47 18l57 145h56l-43 -101q12 3 25 3z" />
    <glyph glyph-name="guillemotright" unicode="&#xbb;" horiz-adv-x="501" 
d="M64 493l66 42l142 -215l-142 -215l-66 42l113 173zM245 493l66 42l142 -215l-142 -215l-66 42l113 173z" />
    <glyph glyph-name="questiondown" unicode="&#xbf;" horiz-adv-x="485" 
d="M255 406q-31 0 -52 20.5t-21 50.5q0 31 21 52t52 21t52 -21t21 -52q0 -30 -21 -50.5t-52 -20.5zM380 -30l46 -77q-71 -63 -169 -63q-81 0 -135 46t-54 116q0 57 37 100.5t103 65.5l1 119h93v-175q-62 -7 -100 -35t-38 -68q0 -34 27 -55t71 -21q63 0 118 47z" />
    <glyph glyph-name="Agrave" unicode="&#xc0;" horiz-adv-x="760" 
d="M434 761h-92l-74 147h104zM628 0l-87 211h-323l-87 -211h-98l297 706h100l298 -706h-100zM254 299h251l-125 306z" />
    <glyph glyph-name="Aacute" unicode="&#xc1;" horiz-adv-x="760" 
d="M496 908l-74 -147h-92l62 147h104zM628 0l-87 211h-323l-87 -211h-98l297 706h100l298 -706h-100zM254 299h251l-125 306z" />
    <glyph glyph-name="Acircumflex" unicode="&#xc2;" horiz-adv-x="760" 
d="M381 854l-74 -93h-93l104 147h125l104 -147h-92zM628 0l-87 211h-323l-87 -211h-98l297 706h100l298 -706h-100zM254 299h251l-125 306z" />
    <glyph glyph-name="Atilde" unicode="&#xc3;" horiz-adv-x="760" 
d="M263 756l-67 2q-4 75 24.5 116t80.5 41q37 0 65 -20.5t49.5 -41t42.5 -20.5q46 0 43 81l67 -2q4 -76 -25 -116.5t-81 -40.5q-29 0 -53 13t-38 28t-31 28t-34 13q-46 0 -43 -81zM628 0l-87 211h-323l-87 -211h-98l297 706h100l298 -706h-100zM254 299h251l-125 306z" />
    <glyph glyph-name="Adieresis" unicode="&#xc4;" horiz-adv-x="760" 
d="M288 787q-29 0 -47.5 18.5t-18.5 46.5q0 27 19 45.5t47 18.5t47 -18.5t19 -45.5q0 -28 -19 -46.5t-47 -18.5zM480 787q-29 0 -47.5 18.5t-18.5 46.5q0 27 19 45.5t47 18.5t47 -18.5t19 -45.5q0 -28 -19 -46.5t-47 -18.5zM628 0l-87 211h-323l-87 -211h-98l297 706h100
l298 -706h-100zM254 299h251l-125 306z" />
    <glyph glyph-name="Aring" unicode="&#xc5;" horiz-adv-x="760" 
d="M382 733q-59 0 -99.5 37.5t-40.5 92.5t40.5 92.5t99.5 37.5q60 0 100.5 -37.5t40.5 -92.5t-40.5 -92.5t-100.5 -37.5zM382 926q-28 0 -46.5 -18t-18.5 -45q0 -26 18.5 -44t46.5 -18t47 18t19 44q0 27 -19 45t-47 18zM628 0l-87 211h-323l-87 -211h-98l297 706h100
l298 -706h-100zM254 299h251l-125 306z" />
    <glyph glyph-name="AE" unicode="&#xc6;" horiz-adv-x="919" 
d="M846 610h-265v-198h257v-91h-257v-231h265v-90h-356v191h-258l-98 -191h-104l372 700h444v-90zM277 279h213v331h-42z" />
    <glyph glyph-name="Ccedilla" unicode="&#xc7;" horiz-adv-x="743" 
d="M709 130q-47 -60 -116 -97t-152 -42l-28 -67q12 3 25 3q40 0 65.5 -26t25.5 -65q0 -43 -28.5 -70t-72.5 -27q-43 0 -72.5 25t-32.5 62l65 8q1 -15 12 -25t27 -10q18 0 29 10.5t11 27.5t-11 28t-29 11q-21 0 -37 -14l-47 18l44 111q-144 11 -239.5 112t-95.5 246
q0 154 104.5 257.5t259.5 103.5q168 0 275 -120l-67 -69q-76 95 -208 95q-116 0 -192.5 -76t-76.5 -191q0 -113 76.5 -189t191.5 -76q70 0 128 29.5t95 80.5z" />
    <glyph glyph-name="Egrave" unicode="&#xc8;" horiz-adv-x="560" 
d="M284 908l62 -147h-92l-74 147h104zM101 0v700h387v-90h-295v-198h287v-91h-287v-231h295v-90h-387z" />
    <glyph glyph-name="Eacute" unicode="&#xc9;" horiz-adv-x="560" 
d="M304 908h104l-74 -147h-92zM101 0v700h387v-90h-295v-198h287v-91h-287v-231h295v-90h-387z" />
    <glyph glyph-name="Ecircumflex" unicode="&#xca;" horiz-adv-x="560" 
d="M293 854l-74 -93h-93l104 147h125l104 -147h-92zM488 610h-295v-198h287v-91h-287v-231h295v-90h-387v700h387v-90z" />
    <glyph glyph-name="Edieresis" unicode="&#xcb;" horiz-adv-x="560" 
d="M200 916q28 0 47 -18.5t19 -45.5q0 -28 -19 -46.5t-47 -18.5q-29 0 -47.5 18.5t-18.5 46.5q0 27 19 45.5t47 18.5zM392 916q28 0 47 -18.5t19 -45.5q0 -28 -19 -46.5t-47 -18.5q-29 0 -47.5 18.5t-18.5 46.5q0 27 19 45.5t47 18.5zM101 0v700h387v-90h-295v-198h287v-91
h-287v-231h295v-90h-387z" />
    <glyph glyph-name="Igrave" unicode="&#xcc;" horiz-adv-x="294" 
d="M138 908l62 -147h-92l-74 147h104zM193 700v-700h-92v700h92z" />
    <glyph glyph-name="Iacute" unicode="&#xcd;" horiz-adv-x="294" 
d="M158 908h104l-74 -147h-92zM193 700v-700h-92v700h92z" />
    <glyph glyph-name="Icircumflex" unicode="&#xce;" horiz-adv-x="294" 
d="M209 908l104 -147h-92l-74 93l-74 -93h-93l104 147h125zM101 0v700h92v-700h-92z" />
    <glyph glyph-name="Idieresis" unicode="&#xcf;" horiz-adv-x="294" 
d="M54 916q28 0 47 -18.5t19 -45.5q0 -28 -19 -46.5t-47 -18.5q-29 0 -47.5 18.5t-18.5 46.5q0 27 19 45.5t47 18.5zM246 916q28 0 47 -18.5t19 -45.5q0 -28 -19 -46.5t-47 -18.5q-29 0 -47.5 18.5t-18.5 46.5q0 27 19 45.5t47 18.5zM193 700v-700h-92v700h92z" />
    <glyph glyph-name="Eth" unicode="&#xd0;" horiz-adv-x="769" 
d="M370 700q149 0 248 -100t99 -250t-99 -250t-248 -100h-233v330h-102v74h102v296h233zM368 90q113 0 185 73t72 187t-72 187t-185 73h-139v-206h177v-74h-177v-240h139z" />
    <glyph glyph-name="Ntilde" unicode="&#xd1;" horiz-adv-x="786" 
d="M279 756l-67 2q-4 75 24.5 116t80.5 41q37 0 65 -20.5t49.5 -41t42.5 -20.5q46 0 43 81l67 -2q4 -76 -25 -116.5t-81 -40.5q-29 0 -53 13t-38 28t-31 28t-34 13q-46 0 -43 -81zM686 0h-72l-421 534v-534h-92v700h73l420 -534v534h92v-700z" />
    <glyph glyph-name="Ograve" unicode="&#xd2;" horiz-adv-x="832" 
d="M408 908l62 -147h-92l-74 147h104zM416 -10q-155 0 -259.5 103t-104.5 257t105.5 257t260.5 103q154 0 258 -103.5t104 -256.5t-104.5 -256.5t-259.5 -103.5zM416 84q115 0 191.5 76t76.5 190t-76 190t-190 76q-116 0 -193.5 -76t-77.5 -190t77 -190t192 -76z" />
    <glyph glyph-name="Oacute" unicode="&#xd3;" horiz-adv-x="832" 
d="M428 908h104l-74 -147h-92zM416 -10q-155 0 -259.5 103t-104.5 257t105.5 257t260.5 103q154 0 258 -103.5t104 -256.5t-104.5 -256.5t-259.5 -103.5zM416 84q115 0 191.5 76t76.5 190t-76 190t-190 76q-116 0 -193.5 -76t-77.5 -190t77 -190t192 -76z" />
    <glyph glyph-name="Ocircumflex" unicode="&#xd4;" horiz-adv-x="832" 
d="M417 854l-74 -93h-93l104 147h125l104 -147h-92zM418 710q154 0 258 -103.5t104 -256.5t-104.5 -256.5t-259.5 -103.5t-259.5 103t-104.5 257t105.5 257t260.5 103zM416 84q115 0 191.5 76t76.5 190t-76 190t-190 76q-116 0 -193.5 -76t-77.5 -190t77 -190t192 -76z" />
    <glyph glyph-name="Otilde" unicode="&#xd5;" horiz-adv-x="832" 
d="M299 756l-67 2q-4 75 24.5 116t80.5 41q37 0 65 -20.5t49.5 -41t42.5 -20.5q46 0 43 81l67 -2q4 -76 -25 -116.5t-81 -40.5q-29 0 -53 13t-38 28t-31 28t-34 13q-46 0 -43 -81zM416 -10q-155 0 -259.5 103t-104.5 257t105.5 257t260.5 103q154 0 258 -103.5t104 -256.5
t-104.5 -256.5t-259.5 -103.5zM416 84q115 0 191.5 76t76.5 190t-76 190t-190 76q-116 0 -193.5 -76t-77.5 -190t77 -190t192 -76z" />
    <glyph glyph-name="Odieresis" unicode="&#xd6;" horiz-adv-x="832" 
d="M324 916q28 0 47 -18.5t19 -45.5q0 -28 -19 -46.5t-47 -18.5q-29 0 -47.5 18.5t-18.5 46.5q0 27 19 45.5t47 18.5zM516 916q28 0 47 -18.5t19 -45.5q0 -28 -19 -46.5t-47 -18.5q-29 0 -47.5 18.5t-18.5 46.5q0 27 19 45.5t47 18.5zM416 -10q-155 0 -259.5 103t-104.5 257
t105.5 257t260.5 103q154 0 258 -103.5t104 -256.5t-104.5 -256.5t-259.5 -103.5zM416 84q115 0 191.5 76t76.5 190t-76 190t-190 76q-116 0 -193.5 -76t-77.5 -190t77 -190t192 -76z" />
    <glyph glyph-name="multiply" unicode="&#xd7;" horiz-adv-x="480" 
d="M420 437l-117 -117l117 -117l-63 -64l-117 117l-117 -117l-63 64l117 117l-117 117l63 63l117 -117l117 117z" />
    <glyph glyph-name="Oslash" unicode="&#xd8;" horiz-adv-x="832" 
d="M690 592q90 -99 90 -242q0 -153 -104.5 -256.5t-259.5 -103.5q-125 0 -219 69l-66 -72l-55 50l66 71q-90 99 -90 242q0 154 105.5 257t260.5 103q122 0 217 -68l66 71l55 -50zM145 350q0 -100 60 -173l367 397q-69 45 -154 45q-117 0 -195 -77t-78 -192zM416 81
q116 0 193.5 77t77.5 192q0 100 -60 174l-367 -397q70 -46 156 -46z" />
    <glyph glyph-name="Ugrave" unicode="&#xd9;" horiz-adv-x="741" 
d="M361 908l62 -147h-92l-74 147h104zM370 -10q-131 0 -209 76.5t-78 204.5v429h92v-430q0 -87 53 -137.5t143 -50.5t142.5 50.5t52.5 137.5v430h92v-429q0 -128 -78.5 -204.5t-209.5 -76.5z" />
    <glyph glyph-name="Uacute" unicode="&#xda;" horiz-adv-x="741" 
d="M381 908h104l-74 -147h-92zM370 -10q-131 0 -209 76.5t-78 204.5v429h92v-430q0 -87 53 -137.5t143 -50.5t142.5 50.5t52.5 137.5v430h92v-429q0 -128 -78.5 -204.5t-209.5 -76.5z" />
    <glyph glyph-name="Ucircumflex" unicode="&#xdb;" horiz-adv-x="741" 
d="M370 854l-74 -93h-93l104 147h125l104 -147h-92zM566 700h92v-429q0 -128 -78.5 -204.5t-209.5 -76.5t-209 76.5t-78 204.5v429h92v-430q0 -87 53 -137.5t143 -50.5t142.5 50.5t52.5 137.5v430z" />
    <glyph glyph-name="Udieresis" unicode="&#xdc;" horiz-adv-x="741" 
d="M277 916q28 0 47 -18.5t19 -45.5q0 -28 -19 -46.5t-47 -18.5q-29 0 -47.5 18.5t-18.5 46.5q0 27 19 45.5t47 18.5zM469 916q28 0 47 -18.5t19 -45.5q0 -28 -19 -46.5t-47 -18.5q-29 0 -47.5 18.5t-18.5 46.5q0 27 19 45.5t47 18.5zM370 -10q-131 0 -209 76.5t-78 204.5
v429h92v-430q0 -87 53 -137.5t143 -50.5t142.5 50.5t52.5 137.5v430h92v-429q0 -128 -78.5 -204.5t-209.5 -76.5z" />
    <glyph glyph-name="Yacute" unicode="&#xdd;" horiz-adv-x="637" 
d="M433 908l-74 -147h-92l62 147h104zM609 700l-244 -365v-335h-92v333l-245 367h112l178 -273l179 273h112z" />
    <glyph glyph-name="Thorn" unicode="&#xde;" horiz-adv-x="623" 
d="M345 580q107 0 171 -60t64 -160t-64 -160t-171 -60h-152v-140h-92v700h92v-120h152zM342 232q67 0 105 33.5t38 94.5t-38 94.5t-105 33.5h-149v-256h149z" />
    <glyph glyph-name="germandbls" unicode="&#xdf;" horiz-adv-x="644" 
d="M450 398q67 -21 108 -73.5t41 -122.5q0 -89 -63 -149.5t-159 -60.5q-79 0 -137 42l44 82q37 -31 89 -31q56 0 93.5 36t37.5 90q0 55 -38 91t-94 36h-57v94h3q52 0 86.5 33t34.5 84q0 52 -33.5 85t-86.5 33q-58 0 -96 -38t-38 -101v-528h-91v528q0 104 64 168t161 64
q93 0 154 -58.5t61 -146.5q0 -104 -84 -157z" />
    <glyph glyph-name="agrave" unicode="&#xe0;" horiz-adv-x="638" 
d="M365 594h-92l-74 147h104zM461 499h91v-499h-91v62q-62 -72 -164 -72q-107 0 -179.5 74.5t-72.5 186.5q0 111 72 184.5t180 73.5q101 0 164 -70v60zM309 80q49 0 89 22t63 57v183q-23 35 -63.5 56t-87.5 21q-74 0 -123.5 -48t-49.5 -121t49.5 -121.5t122.5 -48.5z" />
    <glyph glyph-name="aacute" unicode="&#xe1;" horiz-adv-x="638" 
d="M427 741l-74 -147h-92l62 147h104zM461 499h91v-499h-91v62q-62 -72 -164 -72q-107 0 -179.5 74.5t-72.5 186.5q0 111 72 184.5t180 73.5q101 0 164 -70v60zM309 80q49 0 89 22t63 57v183q-23 35 -63.5 56t-87.5 21q-74 0 -123.5 -48t-49.5 -121t49.5 -121.5t122.5 -48.5
z" />
    <glyph glyph-name="acircumflex" unicode="&#xe2;" horiz-adv-x="638" 
d="M312 687l-74 -93h-93l104 147h125l104 -147h-92zM461 499h91v-499h-91v62q-62 -72 -164 -72q-107 0 -179.5 74.5t-72.5 186.5q0 111 72 184.5t180 73.5q101 0 164 -70v60zM309 80q49 0 89 22t63 57v183q-23 35 -63.5 56t-87.5 21q-74 0 -123.5 -48t-49.5 -121
t49.5 -121.5t122.5 -48.5z" />
    <glyph glyph-name="atilde" unicode="&#xe3;" horiz-adv-x="638" 
d="M194 589l-67 2q-4 75 24.5 116t80.5 41q37 0 65 -20.5t49.5 -41t42.5 -20.5q46 0 43 81l67 -2q4 -76 -25 -116.5t-81 -40.5q-29 0 -53 13t-38 28t-31 28t-34 13q-46 0 -43 -81zM461 499h91v-499h-91v62q-62 -72 -164 -72q-107 0 -179.5 74.5t-72.5 186.5q0 111 72 184.5
t180 73.5q101 0 164 -70v60zM309 80q49 0 89 22t63 57v183q-23 35 -63.5 56t-87.5 21q-74 0 -123.5 -48t-49.5 -121t49.5 -121.5t122.5 -48.5z" />
    <glyph glyph-name="adieresis" unicode="&#xe4;" horiz-adv-x="638" 
d="M219 620q-29 0 -47.5 18.5t-18.5 46.5q0 27 19 45.5t47 18.5t47 -18.5t19 -45.5q0 -28 -19 -46.5t-47 -18.5zM411 620q-29 0 -47.5 18.5t-18.5 46.5q0 27 19 45.5t47 18.5t47 -18.5t19 -45.5q0 -28 -19 -46.5t-47 -18.5zM461 499h91v-499h-91v62q-62 -72 -164 -72
q-107 0 -179.5 74.5t-72.5 186.5q0 111 72 184.5t180 73.5q101 0 164 -70v60zM309 80q49 0 89 22t63 57v183q-23 35 -63.5 56t-87.5 21q-74 0 -123.5 -48t-49.5 -121t49.5 -121.5t122.5 -48.5z" />
    <glyph glyph-name="aring" unicode="&#xe5;" horiz-adv-x="638" 
d="M313 566q-59 0 -99.5 37.5t-40.5 92.5t40.5 92.5t99.5 37.5q60 0 100.5 -37.5t40.5 -92.5t-40.5 -92.5t-100.5 -37.5zM313 759q-28 0 -46.5 -18t-18.5 -45q0 -26 18.5 -44t46.5 -18t47 18t19 44q0 27 -19 45t-47 18zM461 499h91v-499h-91v62q-62 -72 -164 -72
q-107 0 -179.5 74.5t-72.5 186.5q0 111 72 184.5t180 73.5q101 0 164 -70v60zM309 80q49 0 89 22t63 57v183q-23 35 -63.5 56t-87.5 21q-74 0 -123.5 -48t-49.5 -121t49.5 -121.5t122.5 -48.5z" />
    <glyph glyph-name="ae" unicode="&#xe6;" horiz-adv-x="1004" 
d="M960 253l-1 -22h-412q7 -67 57 -109t124 -42q82 0 160 74l60 -69q-98 -95 -215 -95q-122 0 -187 81v-71h-85v62q-62 -72 -164 -72q-107 0 -179.5 74.5t-72.5 186.5q0 111 72 184.5t180 73.5q101 0 164 -70v60h85v-65q62 75 175 75q104 0 171.5 -71t67.5 -185zM717 426
q-59 0 -102.5 -32.5t-60.5 -86.5h311q-14 56 -52.5 87.5t-95.5 31.5zM309 80q49 0 89 22t63 57v183q-23 35 -63.5 56t-87.5 21q-74 0 -123.5 -48t-49.5 -121t49.5 -121.5t122.5 -48.5z" />
    <glyph glyph-name="ccedilla" unicode="&#xe7;" horiz-adv-x="556" 
d="M527 95q-71 -92 -191 -104l-29 -67q12 3 25 3q40 0 65.5 -26t25.5 -65q0 -43 -28.5 -70t-72.5 -27q-43 0 -72.5 25t-32.5 62l65 8q1 -15 12 -25t27 -10q18 0 29 10.5t11 27.5t-11 28t-29 11q-21 0 -37 -14l-47 18l44 111q-103 10 -170 82.5t-67 175.5q0 111 77 185.5
t188 74.5q127 0 203 -90l-66 -67q-50 64 -136 64q-73 0 -122 -47.5t-49 -119.5q0 -71 48.5 -118.5t121.5 -47.5q96 0 147 74z" />
    <glyph glyph-name="egrave" unicode="&#xe8;" horiz-adv-x="592" 
d="M356 594h-92l-74 147h104zM548 252l-1 -21h-411q7 -67 57 -109t123 -42q83 0 160 74l60 -69q-98 -95 -218 -95q-119 0 -195 73.5t-76 188.5q0 112 73 184.5t182 72.5q108 0 177 -72.5t69 -184.5zM302 426q-59 0 -101.5 -32.5t-58.5 -87.5h313q-14 56 -54.5 88t-98.5 32z
" />
    <glyph glyph-name="eacute" unicode="&#xe9;" horiz-adv-x="592" 
d="M418 741l-74 -147h-92l62 147h104zM548 252l-1 -21h-411q7 -67 57 -109t123 -42q83 0 160 74l60 -69q-98 -95 -218 -95q-119 0 -195 73.5t-76 188.5q0 112 73 184.5t182 72.5q108 0 177 -72.5t69 -184.5zM302 426q-59 0 -101.5 -32.5t-58.5 -87.5h313q-14 56 -54.5 88
t-98.5 32z" />
    <glyph glyph-name="ecircumflex" unicode="&#xea;" horiz-adv-x="592" 
d="M303 687l-74 -93h-93l104 147h125l104 -147h-92zM548 252l-1 -21h-411q7 -67 57 -109t123 -42q83 0 160 74l60 -69q-98 -95 -218 -95q-119 0 -195 73.5t-76 188.5q0 112 73 184.5t182 72.5q108 0 177 -72.5t69 -184.5zM302 426q-59 0 -101.5 -32.5t-58.5 -87.5h313
q-14 56 -54.5 88t-98.5 32z" />
    <glyph glyph-name="edieresis" unicode="&#xeb;" horiz-adv-x="592" 
d="M210 620q-29 0 -47.5 18.5t-18.5 46.5q0 27 19 45.5t47 18.5t47 -18.5t19 -45.5q0 -28 -19 -46.5t-47 -18.5zM402 620q-29 0 -47.5 18.5t-18.5 46.5q0 27 19 45.5t47 18.5t47 -18.5t19 -45.5q0 -28 -19 -46.5t-47 -18.5zM548 252l-1 -21h-411q7 -67 57 -109t123 -42
q83 0 160 74l60 -69q-98 -95 -218 -95q-119 0 -195 73.5t-76 188.5q0 112 73 184.5t182 72.5q108 0 177 -72.5t69 -184.5zM302 426q-59 0 -101.5 -32.5t-58.5 -87.5h313q-14 56 -54.5 88t-98.5 32z" />
    <glyph glyph-name="igrave" unicode="&#xec;" horiz-adv-x="274" 
d="M127 741l62 -147h-92l-74 147h104zM92 0v499h91v-499h-91z" />
    <glyph glyph-name="iacute" unicode="&#xed;" horiz-adv-x="274" 
d="M147 741h104l-74 -147h-92zM92 0v499h91v-499h-91z" />
    <glyph glyph-name="icircumflex" unicode="&#xee;" horiz-adv-x="274" 
d="M198 741l104 -147h-92l-74 93l-74 -93h-93l104 147h125zM92 0v499h91v-499h-91z" />
    <glyph glyph-name="idieresis" unicode="&#xef;" horiz-adv-x="274" 
d="M43 749q28 0 47 -18.5t19 -45.5q0 -28 -19 -46.5t-47 -18.5q-29 0 -47.5 18.5t-18.5 46.5q0 27 19 45.5t47 18.5zM235 749q28 0 47 -18.5t19 -45.5q0 -28 -19 -46.5t-47 -18.5q-29 0 -47.5 18.5t-18.5 46.5q0 27 19 45.5t47 18.5zM92 0v499h91v-499h-91z" />
    <glyph glyph-name="eth" unicode="&#xf0;" horiz-adv-x="626" 
d="M418 617q153 -147 153 -341q0 -128 -73 -207t-189 -79q-114 0 -189.5 75t-75.5 188q0 107 70 174.5t176 67.5q115 0 178 -80l2 1q-40 97 -141 180l-173 -41l-12 52l129 31q-47 31 -100 60l40 67q89 -51 156 -105l130 31l12 -52zM308 80q74 0 123 48.5t49 121.5t-49 121
t-123 48t-123 -48t-49 -121t49 -121.5t123 -48.5z" />
    <glyph glyph-name="ntilde" unicode="&#xf1;" horiz-adv-x="617" 
d="M210 589l-67 2q-4 75 24.5 116t80.5 41q37 0 65 -20.5t49.5 -41t42.5 -20.5q46 0 43 81l67 -2q4 -76 -25 -116.5t-81 -40.5q-29 0 -53 13t-38 28t-31 28t-34 13q-46 0 -43 -81zM346 509q89 0 144.5 -56.5t55.5 -159.5v-293h-91v287q0 64 -36.5 98t-92.5 34
q-45 0 -85.5 -19.5t-63.5 -54.5v-345h-91v499h91v-66q58 76 169 76z" />
    <glyph glyph-name="ograve" unicode="&#xf2;" horiz-adv-x="616" 
d="M297 741l62 -147h-92l-74 147h104zM308 509q113 0 188.5 -74t75.5 -185t-75.5 -185.5t-188.5 -74.5t-188.5 74.5t-75.5 185.5t75.5 185t188.5 74zM308 419q-74 0 -123 -48t-49 -121t49 -121.5t123 -48.5t123 48.5t49 121.5t-49 121t-123 48z" />
    <glyph glyph-name="oacute" unicode="&#xf3;" horiz-adv-x="616" 
d="M317 741h104l-74 -147h-92zM308 509q113 0 188.5 -74t75.5 -185t-75.5 -185.5t-188.5 -74.5t-188.5 74.5t-75.5 185.5t75.5 185t188.5 74zM308 419q-74 0 -123 -48t-49 -121t49 -121.5t123 -48.5t123 48.5t49 121.5t-49 121t-123 48z" />
    <glyph glyph-name="ocircumflex" unicode="&#xf4;" horiz-adv-x="616" 
d="M306 687l-74 -93h-93l104 147h125l104 -147h-92zM308 509q113 0 188.5 -74t75.5 -185t-75.5 -185.5t-188.5 -74.5t-188.5 74.5t-75.5 185.5t75.5 185t188.5 74zM308 80q74 0 123 48.5t49 121.5t-49 121t-123 48t-123 -48t-49 -121t49 -121.5t123 -48.5z" />
    <glyph glyph-name="otilde" unicode="&#xf5;" horiz-adv-x="616" 
d="M188 589l-67 2q-4 75 24.5 116t80.5 41q37 0 65 -20.5t49.5 -41t42.5 -20.5q46 0 43 81l67 -2q4 -76 -25 -116.5t-81 -40.5q-29 0 -53 13t-38 28t-31 28t-34 13q-46 0 -43 -81zM308 509q113 0 188.5 -74t75.5 -185t-75.5 -185.5t-188.5 -74.5t-188.5 74.5t-75.5 185.5
t75.5 185t188.5 74zM308 419q-74 0 -123 -48t-49 -121t49 -121.5t123 -48.5t123 48.5t49 121.5t-49 121t-123 48z" />
    <glyph glyph-name="odieresis" unicode="&#xf6;" horiz-adv-x="616" 
d="M213 749q28 0 47 -18.5t19 -45.5q0 -28 -19 -46.5t-47 -18.5q-29 0 -47.5 18.5t-18.5 46.5q0 27 19 45.5t47 18.5zM405 749q28 0 47 -18.5t19 -45.5q0 -28 -19 -46.5t-47 -18.5q-29 0 -47.5 18.5t-18.5 46.5q0 27 19 45.5t47 18.5zM308 509q113 0 188.5 -74t75.5 -185
t-75.5 -185.5t-188.5 -74.5t-188.5 74.5t-75.5 185.5t75.5 185t188.5 74zM308 419q-74 0 -123 -48t-49 -121t49 -121.5t123 -48.5t123 48.5t49 121.5t-49 121t-123 48z" />
    <glyph glyph-name="divide" unicode="&#xf7;" horiz-adv-x="547" 
d="M274 580q31 0 52 -20.5t21 -51.5t-21 -52t-52 -21q-32 0 -53 21t-21 52t21 51.5t53 20.5zM483 365v-90h-420v90h420zM274 204q31 0 52 -20.5t21 -51.5t-21 -52t-52 -21q-32 0 -53 21t-21 52t21 51.5t53 20.5z" />
    <glyph glyph-name="oslash" unicode="&#xf8;" horiz-adv-x="614" 
d="M511 418q59 -72 59 -168q0 -111 -75 -185.5t-187 -74.5q-85 0 -151 44l-42 -46l-54 49l42 45q-59 72 -59 168q0 111 75.5 185t188.5 74q84 0 149 -43l43 46l53 -49zM129 250q0 -58 32 -104l238 257q-40 23 -91 23q-77 0 -128 -50t-51 -126zM308 73q76 0 127 51t51 126
q0 59 -33 105l-238 -258q43 -24 93 -24z" />
    <glyph glyph-name="ugrave" unicode="&#xf9;" horiz-adv-x="618" 
d="M353 594h-92l-74 147h104zM440 499h91v-499h-91v66q-58 -76 -169 -76q-89 0 -144.5 56.5t-55.5 159.5v293h91v-287q0 -64 36.5 -98t92.5 -34q45 0 85.5 19.5t63.5 54.5v345z" />
    <glyph glyph-name="uacute" unicode="&#xfa;" horiz-adv-x="618" 
d="M415 741l-74 -147h-92l62 147h104zM440 499h91v-499h-91v66q-58 -76 -169 -76q-89 0 -144.5 56.5t-55.5 159.5v293h91v-287q0 -64 36.5 -98t92.5 -34q45 0 85.5 19.5t63.5 54.5v345z" />
    <glyph glyph-name="ucircumflex" unicode="&#xfb;" horiz-adv-x="618" 
d="M300 687l-74 -93h-93l104 147h125l104 -147h-92zM440 499h91v-499h-91v66q-58 -76 -169 -76q-89 0 -144.5 56.5t-55.5 159.5v293h91v-287q0 -64 36.5 -98t92.5 -34q45 0 85.5 19.5t63.5 54.5v345z" />
    <glyph glyph-name="udieresis" unicode="&#xfc;" horiz-adv-x="618" 
d="M207 620q-29 0 -47.5 18.5t-18.5 46.5q0 27 19 45.5t47 18.5t47 -18.5t19 -45.5q0 -28 -19 -46.5t-47 -18.5zM399 620q-29 0 -47.5 18.5t-18.5 46.5q0 27 19 45.5t47 18.5t47 -18.5t19 -45.5q0 -28 -19 -46.5t-47 -18.5zM440 499h91v-499h-91v66q-58 -76 -169 -76
q-89 0 -144.5 56.5t-55.5 159.5v293h91v-287q0 -64 36.5 -98t92.5 -34q45 0 85.5 19.5t63.5 54.5v345z" />
    <glyph glyph-name="yacute" unicode="&#xfd;" horiz-adv-x="643" 
d="M430 741l-74 -147h-92l62 147h104zM457 499h91v-533q0 -106 -66 -171t-172 -65q-103 0 -171.5 61.5t-75.5 160.5l91 9q6 -63 48.5 -102.5t108.5 -39.5q65 0 105.5 40t40.5 107v123q-57 -74 -168 -74q-89 0 -144.5 57t-55.5 160v267h91v-261q0 -65 36.5 -99t92.5 -34
q44 0 84 19.5t64 53.5v321z" />
    <glyph glyph-name="thorn" unicode="&#xfe;" horiz-adv-x="656" 
d="M359 509q108 0 180 -73.5t72 -184.5q0 -112 -72.5 -186.5t-179.5 -74.5q-102 0 -164 72v-322h-91v1010h91v-311q63 70 164 70zM347 80q73 0 122.5 48.5t49.5 121.5t-49.5 121t-123.5 48q-47 0 -87.5 -21t-63.5 -56v-183q23 -35 63 -57t89 -22z" />
    <glyph glyph-name="ydieresis" unicode="&#xff;" horiz-adv-x="643" 
d="M222 620q-29 0 -47.5 18.5t-18.5 46.5q0 27 19 45.5t47 18.5t47 -18.5t19 -45.5q0 -28 -19 -46.5t-47 -18.5zM414 620q-29 0 -47.5 18.5t-18.5 46.5q0 27 19 45.5t47 18.5t47 -18.5t19 -45.5q0 -28 -19 -46.5t-47 -18.5zM457 499h91v-533q0 -106 -66 -171t-172 -65
q-103 0 -171.5 61.5t-75.5 160.5l91 9q6 -63 48.5 -102.5t108.5 -39.5q65 0 105.5 40t40.5 107v123q-57 -74 -168 -74q-89 0 -144.5 57t-55.5 160v267h91v-261q0 -65 36.5 -99t92.5 -34q44 0 84 19.5t64 53.5v321z" />
    <glyph glyph-name="Amacron" unicode="&#x100;" horiz-adv-x="760" 
d="M508 874v-80h-252v80h252zM628 0l-87 211h-323l-87 -211h-98l297 706h100l298 -706h-100zM254 299h251l-125 306z" />
    <glyph glyph-name="amacron" unicode="&#x101;" horiz-adv-x="638" 
d="M439 707v-80h-252v80h252zM461 499h91v-499h-91v62q-62 -72 -164 -72q-107 0 -179.5 74.5t-72.5 186.5q0 111 72 184.5t180 73.5q101 0 164 -70v60zM309 80q49 0 89 22t63 57v183q-23 35 -63.5 56t-87.5 21q-74 0 -123.5 -48t-49.5 -121t49.5 -121.5t122.5 -48.5z" />
    <glyph glyph-name="Abreve" unicode="&#x102;" horiz-adv-x="760" 
d="M383 753q-70 0 -113 42.5t-41 110.5l81 4q-1 -39 18.5 -62t54.5 -23q34 0 54 23t19 62l81 -4q2 -68 -41 -110.5t-113 -42.5zM628 0l-87 211h-323l-87 -211h-98l297 706h100l298 -706h-100zM254 299h251l-125 306z" />
    <glyph glyph-name="abreve" unicode="&#x103;" horiz-adv-x="638" 
d="M314 586q-70 0 -113 42.5t-41 110.5l81 4q-1 -39 18.5 -62t54.5 -23q34 0 54 23t19 62l81 -4q2 -68 -41 -110.5t-113 -42.5zM461 499h91v-499h-91v62q-62 -72 -164 -72q-107 0 -179.5 74.5t-72.5 186.5q0 111 72 184.5t180 73.5q101 0 164 -70v60zM309 80q49 0 89 22
t63 57v183q-23 35 -63.5 56t-87.5 21q-74 0 -123.5 -48t-49.5 -121t49.5 -121.5t122.5 -48.5z" />
    <glyph glyph-name="Aogonek" unicode="&#x104;" horiz-adv-x="760" 
d="M728 -158l8 -76q-19 -5 -47 -5q-65 0 -102 33t-37 88q0 77 75 125l-84 204h-323l-87 -211h-98l297 706h100l298 -706q-47 -12 -73.5 -37t-26.5 -60q0 -29 17.5 -47.5t48.5 -18.5q16 0 34 5zM254 299h251l-125 306z" />
    <glyph glyph-name="aogonek" unicode="&#x105;" horiz-adv-x="638" 
d="M552 -158l8 -76q-19 -5 -47 -5q-65 0 -102 33t-37 88q0 83 87 132v48q-62 -72 -164 -72q-107 0 -179.5 74.5t-72.5 186.5q0 111 72 184.5t180 73.5q101 0 164 -70v60h91v-499q-47 -12 -73.5 -37t-26.5 -60q0 -29 17.5 -47.5t48.5 -18.5q16 0 34 5zM309 80q49 0 89 22
t63 57v183q-23 35 -63.5 56t-87.5 21q-74 0 -123.5 -48t-49.5 -121t49.5 -121.5t122.5 -48.5z" />
    <glyph glyph-name="Cacute" unicode="&#x106;" horiz-adv-x="743" 
d="M426 908h104l-74 -147h-92zM624 521q-76 95 -208 95q-116 0 -192.5 -76t-76.5 -191q0 -113 76.5 -189t191.5 -76q70 0 128 29.5t95 80.5l71 -64q-51 -65 -127 -102.5t-167 -37.5q-154 0 -258.5 103.5t-104.5 255.5q0 154 104.5 257.5t259.5 103.5q168 0 275 -120z" />
    <glyph glyph-name="cacute" unicode="&#x107;" horiz-adv-x="556" 
d="M319 741h104l-74 -147h-92zM446 352q-50 64 -136 64q-73 0 -122 -47.5t-49 -119.5q0 -71 48.5 -118.5t121.5 -47.5q96 0 147 74l71 -62q-37 -49 -94.5 -77t-124.5 -28q-112 0 -188 74.5t-76 184.5q0 111 77 185.5t188 74.5q127 0 203 -90z" />
    <glyph glyph-name="Cdotaccent" unicode="&#x10a;" horiz-adv-x="743" 
d="M418 915q30 0 49.5 -19.5t19.5 -48.5q0 -30 -19.5 -49.5t-49.5 -19.5t-49.5 19.5t-19.5 49.5q0 29 19.5 48.5t49.5 19.5zM624 521q-76 95 -208 95q-116 0 -192.5 -76t-76.5 -191q0 -113 76.5 -189t191.5 -76q70 0 128 29.5t95 80.5l71 -64q-51 -65 -127 -102.5
t-167 -37.5q-154 0 -258.5 103.5t-104.5 255.5q0 154 104.5 257.5t259.5 103.5q168 0 275 -120z" />
    <glyph glyph-name="cdotaccent" unicode="&#x10b;" horiz-adv-x="556" 
d="M311 748q30 0 49.5 -19.5t19.5 -48.5q0 -30 -19.5 -49.5t-49.5 -19.5t-49.5 19.5t-19.5 49.5q0 29 19.5 48.5t49.5 19.5zM446 352q-50 64 -136 64q-73 0 -122 -47.5t-49 -119.5q0 -71 48.5 -118.5t121.5 -47.5q96 0 147 74l71 -62q-37 -49 -94.5 -77t-124.5 -28
q-112 0 -188 74.5t-76 184.5q0 111 77 185.5t188 74.5q127 0 203 -90z" />
    <glyph glyph-name="Ccaron" unicode="&#x10c;" horiz-adv-x="743" 
d="M355 761l-104 147h92l74 -93l74 93h93l-104 -147h-125zM638 194l71 -64q-51 -65 -127 -102.5t-167 -37.5q-154 0 -258.5 103.5t-104.5 255.5q0 154 104.5 257.5t259.5 103.5q168 0 275 -120l-67 -69q-76 95 -208 95q-116 0 -192.5 -76t-76.5 -191q0 -113 76.5 -189
t191.5 -76q70 0 128 29.5t95 80.5z" />
    <glyph glyph-name="ccaron" unicode="&#x10d;" horiz-adv-x="556" 
d="M248 594l-104 147h92l74 -93l74 93h93l-104 -147h-125zM456 157l71 -62q-37 -49 -94.5 -77t-124.5 -28q-112 0 -188 74.5t-76 184.5q0 111 77 185.5t188 74.5q127 0 203 -90l-66 -67q-50 64 -136 64q-73 0 -122 -47.5t-49 -119.5q0 -71 48.5 -118.5t121.5 -47.5
q96 0 147 74z" />
    <glyph glyph-name="Dcaron" unicode="&#x10e;" horiz-adv-x="733" 
d="M278 761l-104 147h92l74 -93l74 93h93l-104 -147h-125zM334 700q149 0 248 -100t99 -250t-99 -250t-248 -100h-233v700h233zM332 90q113 0 185 73t72 187t-72 187t-185 73h-139v-520h139z" />
    <glyph glyph-name="dcaron" unicode="&#x10f;" horiz-adv-x="744" 
d="M458 440v310h91v-750h-91v61q-62 -71 -163 -71q-107 0 -179.5 74.5t-72.5 186.5q0 111 72 184.5t180 73.5q101 0 163 -69zM637 750h80l-6 -195h-68zM307 80q48 0 88.5 21.5t62.5 56.5v185q-22 35 -63 55.5t-88 20.5q-74 0 -123 -48t-49 -121t49.5 -121.5t122.5 -48.5z
" />
    <glyph glyph-name="Dcroat" unicode="&#x110;" horiz-adv-x="769" 
d="M370 700q149 0 248 -100t99 -250t-99 -250t-248 -100h-233v330h-102v74h102v296h233zM368 90q113 0 185 73t72 187t-72 187t-185 73h-139v-206h177v-74h-177v-240h139z" />
    <glyph glyph-name="dcroat" unicode="&#x111;" horiz-adv-x="651" 
d="M615 686v-69h-66v-617h-91v61q-62 -71 -163 -71q-107 0 -179.5 74.5t-72.5 186.5q0 111 72 184.5t180 73.5q101 0 163 -69v177h-188v69h188v64h91v-64h66zM307 80q48 0 88.5 21.5t62.5 56.5v185q-22 35 -63 55.5t-88 20.5q-74 0 -123 -48t-49 -121t49.5 -121.5
t122.5 -48.5z" />
    <glyph glyph-name="Emacron" unicode="&#x112;" horiz-adv-x="560" 
d="M420 874v-80h-252v80h252zM101 0v700h387v-90h-295v-198h287v-91h-287v-231h295v-90h-387z" />
    <glyph glyph-name="emacron" unicode="&#x113;" horiz-adv-x="592" 
d="M430 707v-80h-252v80h252zM548 252l-1 -21h-411q7 -67 57 -109t123 -42q83 0 160 74l60 -69q-98 -95 -218 -95q-119 0 -195 73.5t-76 188.5q0 112 73 184.5t182 72.5q108 0 177 -72.5t69 -184.5zM302 426q-59 0 -101.5 -32.5t-58.5 -87.5h313q-14 56 -54.5 88t-98.5 32z
" />
    <glyph glyph-name="Edotaccent" unicode="&#x116;" horiz-adv-x="560" 
d="M296 915q30 0 49.5 -19.5t19.5 -48.5q0 -30 -19.5 -49.5t-49.5 -19.5t-49.5 19.5t-19.5 49.5q0 29 19.5 48.5t49.5 19.5zM101 0v700h387v-90h-295v-198h287v-91h-287v-231h295v-90h-387z" />
    <glyph glyph-name="edotaccent" unicode="&#x117;" horiz-adv-x="592" 
d="M306 611q-30 0 -49.5 19.5t-19.5 49.5q0 29 19.5 48.5t49.5 19.5t49.5 -19.5t19.5 -48.5q0 -30 -19.5 -49.5t-49.5 -19.5zM548 252l-1 -21h-411q7 -67 57 -109t123 -42q83 0 160 74l60 -69q-98 -95 -218 -95q-119 0 -195 73.5t-76 188.5q0 112 73 184.5t182 72.5
q108 0 177 -72.5t69 -184.5zM302 426q-59 0 -101.5 -32.5t-58.5 -87.5h313q-14 56 -54.5 88t-98.5 32z" />
    <glyph glyph-name="Eogonek" unicode="&#x118;" horiz-adv-x="560" 
d="M488 -158l8 -76q-19 -5 -47 -5q-65 0 -102 33t-37 88q0 70 65 118h-274v700h387v-90h-295v-198h287v-91h-287v-231h295v-90q-47 -12 -73.5 -37t-26.5 -60q0 -29 17.5 -47.5t48.5 -18.5q16 0 34 5z" />
    <glyph glyph-name="eogonek" unicode="&#x119;" horiz-adv-x="592" 
d="M548 252l-1 -21h-411q7 -67 57 -109t123 -42q83 0 160 74l60 -69q-67 -66 -140 -85q-2 0 -2 -1q-46 -12 -72 -37t-26 -59q0 -29 17.5 -47.5t48.5 -18.5q16 0 34 5l8 -76q-19 -5 -47 -5q-65 0 -102 33t-37 88q0 66 56 111q-102 14 -164.5 85t-62.5 174q0 112 73 184.5
t182 72.5q108 0 177 -72.5t69 -184.5zM302 426q-59 0 -101.5 -32.5t-58.5 -87.5h313q-14 56 -54.5 88t-98.5 32z" />
    <glyph glyph-name="Ecaron" unicode="&#x11a;" horiz-adv-x="560" 
d="M233 761l-104 147h92l74 -93l74 93h93l-104 -147h-125zM488 610h-295v-198h287v-91h-287v-231h295v-90h-387v700h387v-90z" />
    <glyph glyph-name="ecaron" unicode="&#x11b;" horiz-adv-x="592" 
d="M243 594l-104 147h92l74 -93l74 93h93l-104 -147h-125zM548 252l-1 -21h-411q7 -67 57 -109t123 -42q83 0 160 74l60 -69q-98 -95 -218 -95q-119 0 -195 73.5t-76 188.5q0 112 73 184.5t182 72.5q108 0 177 -72.5t69 -184.5zM302 426q-59 0 -101.5 -32.5t-58.5 -87.5h313
q-14 56 -54.5 88t-98.5 32z" />
    <glyph glyph-name="Gbreve" unicode="&#x11e;" horiz-adv-x="772" 
d="M418 753q-70 0 -113 42.5t-41 110.5l81 4q-1 -39 18.5 -62t54.5 -23q34 0 54 23t19 62l81 -4q2 -68 -41 -110.5t-113 -42.5zM446 407h263v-282q-51 -63 -127 -99t-167 -36q-154 0 -258.5 103.5t-104.5 255.5q0 154 104.5 257.5t259.5 103.5q168 0 275 -120l-67 -69
q-76 95 -208 95q-116 0 -192.5 -76t-76.5 -191q0 -113 76.5 -189t191.5 -76q123 0 202 82v150h-171v91z" />
    <glyph glyph-name="gbreve" unicode="&#x11f;" horiz-adv-x="657" 
d="M319 586q-70 0 -113 42.5t-41 110.5l81 4q-1 -39 18.5 -62t54.5 -23q34 0 54 23t19 62l81 -4q2 -68 -41 -110.5t-113 -42.5zM472 499h91v-533q0 -106 -68 -171t-175 -65q-104 0 -174 61.5t-77 160.5l91 9q5 -62 49.5 -102t111.5 -40t109 40t42 107v108q-62 -69 -164 -69
q-107 0 -179.5 73t-72.5 181q0 107 72 178.5t180 71.5q101 0 164 -67v57zM319 95q49 0 89.5 21t63.5 55v174q-23 34 -64 54t-89 20q-73 0 -121.5 -46t-48.5 -115t48.5 -116t121.5 -47z" />
    <glyph glyph-name="Gdotaccent" unicode="&#x120;" horiz-adv-x="772" 
d="M419 778q-30 0 -49.5 19.5t-19.5 49.5q0 29 19.5 48.5t49.5 19.5t49.5 -19.5t19.5 -48.5q0 -30 -19.5 -49.5t-49.5 -19.5zM446 407h263v-282q-51 -63 -127 -99t-167 -36q-154 0 -258.5 103.5t-104.5 255.5q0 154 104.5 257.5t259.5 103.5q168 0 275 -120l-67 -69
q-76 95 -208 95q-116 0 -192.5 -76t-76.5 -191q0 -113 76.5 -189t191.5 -76q123 0 202 82v150h-171v91z" />
    <glyph glyph-name="gdotaccent" unicode="&#x121;" horiz-adv-x="657" 
d="M320 611q-30 0 -49.5 19.5t-19.5 49.5q0 29 19.5 48.5t49.5 19.5t49.5 -19.5t19.5 -48.5q0 -30 -19.5 -49.5t-49.5 -19.5zM472 499h91v-533q0 -106 -68 -171t-175 -65q-104 0 -174 61.5t-77 160.5l91 9q5 -62 49.5 -102t111.5 -40t109 40t42 107v108q-62 -69 -164 -69
q-107 0 -179.5 73t-72.5 181q0 107 72 178.5t180 71.5q101 0 164 -67v57zM319 95q49 0 89.5 21t63.5 55v174q-23 34 -64 54t-89 20q-73 0 -121.5 -46t-48.5 -115t48.5 -116t121.5 -47z" />
    <glyph glyph-name="uni0122" unicode="&#x122;" horiz-adv-x="772" 
d="M446 407h263v-282q-51 -63 -127 -99t-167 -36q-154 0 -258.5 103.5t-104.5 255.5q0 154 104.5 257.5t259.5 103.5q168 0 275 -120l-67 -69q-76 95 -208 95q-116 0 -192.5 -76t-76.5 -191q0 -113 76.5 -189t191.5 -76q123 0 202 82v150h-171v91zM421 -61q27 0 46 -19.5
t19 -56.5q0 -69 -87 -159l-43 35q44 45 60 85q-21 -5 -39 12t-18 43q0 25 17.5 42.5t44.5 17.5z" />
    <glyph glyph-name="uni0123" unicode="&#x123;" horiz-adv-x="657" 
d="M318 576q-27 0 -46 19.5t-19 56.5q0 69 87 159l43 -35q-44 -45 -60 -85q21 5 39 -12t18 -43q0 -25 -17.5 -42.5t-44.5 -17.5zM472 499h91v-533q0 -106 -68 -171t-175 -65q-104 0 -174 61.5t-77 160.5l91 9q5 -62 49.5 -102t111.5 -40t109 40t42 107v108q-62 -69 -164 -69
q-107 0 -179.5 73t-72.5 181q0 107 72 178.5t180 71.5q101 0 164 -67v57zM319 95q49 0 89.5 21t63.5 55v174q-23 34 -64 54t-89 20q-73 0 -121.5 -46t-48.5 -115t48.5 -116t121.5 -47z" />
    <glyph glyph-name="Hbar" unicode="&#x126;" horiz-adv-x="789" 
d="M732 599v-72h-56v-527h-92v321h-380v-321h-92v527h-54v72h54v101h92v-101h380v101h92v-101h56zM584 412v115h-380v-115h380z" />
    <glyph glyph-name="hbar" unicode="&#x127;" horiz-adv-x="623" 
d="M360 509q90 0 145.5 -56.5t55.5 -159.5v-293h-91v287q0 64 -36.5 98t-92.5 34q-45 0 -85.5 -19.5t-63.5 -54.5v-345h-91v617h-65v69h65v64h91v-64h189v-69h-189v-184q58 76 168 76z" />
    <glyph glyph-name="Imacron" unicode="&#x12a;" horiz-adv-x="294" 
d="M274 874v-80h-252v80h252zM193 700v-700h-92v700h92z" />
    <glyph glyph-name="imacron" unicode="&#x12b;" horiz-adv-x="274" 
d="M263 707v-80h-252v80h252zM92 0v499h91v-499h-91z" />
    <glyph glyph-name="Iogonek" unicode="&#x12e;" horiz-adv-x="294" 
d="M193 -158l8 -76q-19 -5 -47 -5q-65 0 -102 33t-37 88q0 83 86 131v687h92v-700q-47 -12 -73.5 -37t-26.5 -60q0 -29 17.5 -47.5t48.5 -18.5q16 0 34 5z" />
    <glyph glyph-name="iogonek" unicode="&#x12f;" horiz-adv-x="274" 
d="M139 611q-30 0 -49.5 19.5t-19.5 49.5q0 29 19.5 48.5t49.5 19.5t49.5 -19.5t19.5 -48.5q0 -30 -19.5 -49.5t-49.5 -19.5zM149 -163q16 0 34 5l8 -76q-19 -5 -47 -5q-65 0 -102 33t-37 88q0 83 87 132v485h91v-499q-47 -12 -73.5 -37t-26.5 -60q0 -29 17.5 -47.5
t48.5 -18.5z" />
    <glyph glyph-name="Idotaccent" unicode="&#x130;" horiz-adv-x="294" 
d="M150 915q30 0 49.5 -19.5t19.5 -48.5q0 -30 -19.5 -49.5t-49.5 -19.5t-49.5 19.5t-19.5 49.5q0 29 19.5 48.5t49.5 19.5zM193 700v-700h-92v700h92z" />
    <glyph glyph-name="dotlessi" unicode="&#x131;" horiz-adv-x="274" 
d="M92 0v499h91v-499h-91z" />
    <glyph glyph-name="IJ" unicode="&#x132;" horiz-adv-x="634" 
d="M548 700v-469q0 -107 -65 -174t-169 -67t-170.5 66t-68.5 173l92 7q2 -69 43 -111.5t104 -42.5q64 0 103 41t39 108v469h92zM87 350v350h92v-350h-92z" />
    <glyph glyph-name="ij" unicode="&#x133;" horiz-adv-x="557" 
d="M139 744q31 0 52 -20.5t21 -50.5q0 -31 -21 -52t-52 -21q-32 0 -53 21t-21 52q0 30 21.5 50.5t52.5 20.5zM411 744q31 0 52 -20.5t21 -50.5q0 -31 -21 -52t-52 -21q-32 0 -53 21t-21 52q0 30 21.5 50.5t52.5 20.5zM92 0v499h91v-499h-91zM367 499h91v-516
q0 -85 -45.5 -134t-125.5 -49q-29 0 -49 5l8 89q15 -4 36 -4q39 0 62 25.5t23 69.5v514z" />
    <glyph glyph-name="uni0136" unicode="&#x136;" horiz-adv-x="653" 
d="M345 431l273 -431h-110l-229 362l-86 -90v-272h-92v700h92v-308l282 308h126zM343 -61q27 0 46 -19.5t19 -56.5q0 -69 -87 -159l-43 35q44 45 60 85q-21 -5 -39 12t-18 43q0 25 17.5 42.5t44.5 17.5z" />
    <glyph glyph-name="uni0137" unicode="&#x137;" horiz-adv-x="588" 
d="M348 314l211 -314h-109l-168 249l-96 -93v-156h-91v750h91v-483l236 232h116zM301 -61q27 0 46 -19.5t19 -56.5q0 -69 -87 -159l-43 35q44 45 60 85q-21 -5 -39 12t-18 43q0 25 17.5 42.5t44.5 17.5z" />
    <glyph glyph-name="Lacute" unicode="&#x139;" horiz-adv-x="554" 
d="M163 908h104l-74 -147h-92zM193 700v-610h326v-90h-418v700h92z" />
    <glyph glyph-name="lacute" unicode="&#x13a;" horiz-adv-x="281" 
d="M154 938h104l-74 -147h-92zM95 0v750h91v-750h-91z" />
    <glyph glyph-name="uni013B" unicode="&#x13b;" horiz-adv-x="554" 
d="M193 90h326v-90h-418v700h92v-610zM312 -61q27 0 46 -19.5t19 -56.5q0 -69 -87 -159l-43 35q44 45 60 85q-21 -5 -39 12t-18 43q0 25 17.5 42.5t44.5 17.5z" />
    <glyph glyph-name="uni013C" unicode="&#x13c;" horiz-adv-x="281" 
d="M186 750v-750h-91v750h91zM142 -61q27 0 46 -19.5t19 -56.5q0 -69 -87 -159l-43 35q44 45 60 85q-21 -5 -39 12t-18 43q0 25 17.5 42.5t44.5 17.5z" />
    <glyph glyph-name="Lcaron" unicode="&#x13d;" horiz-adv-x="554" 
d="M461 750l-6 -195h-68l-7 195h81zM193 700v-610h326v-90h-418v700h92z" />
    <glyph glyph-name="lcaron" unicode="&#x13e;" horiz-adv-x="381" 
d="M95 0v750h91v-750h-91zM354 750l-6 -195h-68l-6 195h80z" />
    <glyph glyph-name="Lslash" unicode="&#x141;" horiz-adv-x="577" 
d="M215 90h327v-90h-419v343l-80 -30v78l80 30v279h92v-244l166 62v-77l-166 -63v-288z" />
    <glyph glyph-name="lslash" unicode="&#x142;" horiz-adv-x="325" 
d="M289 484v-77l-83 -32v-375h-92v340l-71 -27v78l71 27v332h92v-297z" />
    <glyph glyph-name="Nacute" unicode="&#x143;" horiz-adv-x="786" 
d="M408 908h104l-74 -147h-92zM686 0h-72l-421 534v-534h-92v700h73l420 -534v534h92v-700z" />
    <glyph glyph-name="nacute" unicode="&#x144;" horiz-adv-x="617" 
d="M443 741l-74 -147h-92l62 147h104zM346 509q89 0 144.5 -56.5t55.5 -159.5v-293h-91v287q0 64 -36.5 98t-92.5 34q-45 0 -85.5 -19.5t-63.5 -54.5v-345h-91v499h91v-66q58 76 169 76z" />
    <glyph glyph-name="uni0145" unicode="&#x145;" horiz-adv-x="786" 
d="M594 700h92v-700h-72l-421 534v-534h-92v700h73l420 -534v534zM401 -61q27 0 46 -19.5t19 -56.5q0 -69 -87 -159l-43 35q44 45 60 85q-21 -5 -39 12t-18 43q0 25 17.5 42.5t44.5 17.5z" />
    <glyph glyph-name="uni0146" unicode="&#x146;" horiz-adv-x="617" 
d="M346 509q89 0 144.5 -56.5t55.5 -159.5v-293h-91v287q0 64 -36.5 98t-92.5 34q-45 0 -85.5 -19.5t-63.5 -54.5v-345h-91v499h91v-66q58 76 169 76zM321 -61q27 0 46 -19.5t19 -56.5q0 -69 -87 -159l-43 35q44 45 60 85q-21 -5 -39 12t-18 43q0 25 17.5 42.5t44.5 17.5z
" />
    <glyph glyph-name="Ncaron" unicode="&#x147;" horiz-adv-x="786" 
d="M337 761l-104 147h92l74 -93l74 93h93l-104 -147h-125zM594 700h92v-700h-72l-421 534v-534h-92v700h73l420 -534v534z" />
    <glyph glyph-name="ncaron" unicode="&#x148;" horiz-adv-x="617" 
d="M268 594l-104 147h92l74 -93l74 93h93l-104 -147h-125zM346 509q89 0 144.5 -56.5t55.5 -159.5v-293h-91v287q0 64 -36.5 98t-92.5 34q-45 0 -85.5 -19.5t-63.5 -54.5v-345h-91v499h91v-66q58 76 169 76z" />
    <glyph glyph-name="Eng" unicode="&#x14a;" horiz-adv-x="786" 
d="M594 700h92v-751q0 -85 -45.5 -134t-125.5 -49q-30 0 -49 5l8 89q15 -4 36 -4q38 0 61.5 26t23.5 69v73l-402 510v-534h-92v700h73l420 -534v534z" />
    <glyph glyph-name="eng" unicode="&#x14b;" horiz-adv-x="617" 
d="M346 509q89 0 144.5 -56.5t55.5 -159.5v-344q0 -85 -45.5 -134t-125.5 -49q-30 0 -49 5l8 89q15 -4 36 -4q39 0 62 25.5t23 69.5v336q0 64 -36.5 98t-92.5 34q-45 0 -85.5 -19.5t-63.5 -54.5v-345h-91v499h91v-66q58 76 169 76z" />
    <glyph glyph-name="Omacron" unicode="&#x14c;" horiz-adv-x="832" 
d="M544 874v-80h-252v80h252zM416 -10q-155 0 -259.5 103t-104.5 257t105.5 257t260.5 103q154 0 258 -103.5t104 -256.5t-104.5 -256.5t-259.5 -103.5zM416 84q115 0 191.5 76t76.5 190t-76 190t-190 76q-116 0 -193.5 -76t-77.5 -190t77 -190t192 -76z" />
    <glyph glyph-name="omacron" unicode="&#x14d;" horiz-adv-x="616" 
d="M433 707v-80h-252v80h252zM308 509q113 0 188.5 -74t75.5 -185t-75.5 -185.5t-188.5 -74.5t-188.5 74.5t-75.5 185.5t75.5 185t188.5 74zM308 419q-74 0 -123 -48t-49 -121t49 -121.5t123 -48.5t123 48.5t49 121.5t-49 121t-123 48z" />
    <glyph glyph-name="Ohungarumlaut" unicode="&#x150;" horiz-adv-x="832" 
d="M347 908h103l-74 -147h-90zM518 908h102l-74 -147h-90zM416 -10q-155 0 -259.5 103t-104.5 257t105.5 257t260.5 103q154 0 258 -103.5t104 -256.5t-104.5 -256.5t-259.5 -103.5zM416 84q115 0 191.5 76t76.5 190t-76 190t-190 76q-116 0 -193.5 -76t-77.5 -190t77 -190
t192 -76z" />
    <glyph glyph-name="ohungarumlaut" unicode="&#x151;" horiz-adv-x="616" 
d="M236 741h103l-74 -147h-90zM407 741h102l-74 -147h-90zM308 509q113 0 188.5 -74t75.5 -185t-75.5 -185.5t-188.5 -74.5t-188.5 74.5t-75.5 185.5t75.5 185t188.5 74zM308 419q-74 0 -123 -48t-49 -121t49 -121.5t123 -48.5t123 48.5t49 121.5t-49 121t-123 48z" />
    <glyph glyph-name="OE" unicode="&#x152;" horiz-adv-x="1032" 
d="M959 610h-265v-198h257v-91h-257v-231h265v-90h-356v48q-78 -58 -190 -58q-152 0 -256.5 103.5t-104.5 256.5q0 154 105.5 257t256.5 103q111 0 189 -58v48h356v-90zM418 84q116 0 185 71v390q-69 71 -183 71q-118 0 -195.5 -76t-77.5 -191q0 -114 77 -189.5t194 -75.5z
" />
    <glyph glyph-name="oe" unicode="&#x153;" horiz-adv-x="1038" 
d="M994 252l-1 -21h-412q8 -67 58 -109t123 -42q82 0 160 74l60 -69q-98 -95 -216 -95q-77 0 -138.5 35.5t-95.5 96.5q-32 -61 -91 -96.5t-133 -35.5q-113 0 -188.5 74.5t-75.5 185.5t75.5 185t188.5 74q73 0 132 -35t91 -95q32 60 90.5 95t129.5 35q106 0 174.5 -72.5
t68.5 -184.5zM749 426q-57 0 -100.5 -32.5t-60.5 -86.5h311q-14 55 -53.5 87t-96.5 32zM308 80q73 0 122 48.5t49 121.5t-49 121t-122 48q-74 0 -123 -48t-49 -121t49 -121.5t123 -48.5z" />
    <glyph glyph-name="Racute" unicode="&#x154;" horiz-adv-x="650" 
d="M424 908l-74 -147h-92l62 147h104zM596 0h-110l-172 265h-121v-265h-92v700h254q107 0 171 -59t64 -158q0 -83 -46 -139t-126 -73zM193 609v-257h161q66 0 104 34t38 95q0 60 -38 94t-104 34h-161z" />
    <glyph glyph-name="racute" unicode="&#x155;" horiz-adv-x="405" 
d="M355 741l-74 -147h-92l62 147h104zM381 418q-56 -3 -115.5 -30.5t-88.5 -69.5v-318h-91v499h91v-84q31 42 84 67t112 28z" />
    <glyph glyph-name="uni0156" unicode="&#x156;" horiz-adv-x="650" 
d="M418 271l178 -271h-110l-172 265h-121v-265h-92v700h254q107 0 171 -59t64 -158q0 -83 -46 -139t-126 -73zM193 609v-257h161q66 0 104 34t38 95q0 60 -38 94t-104 34h-161zM338 -61q27 0 46 -19.5t19 -56.5q0 -69 -87 -159l-43 35q44 45 60 85q-21 -5 -39 12t-18 43
q0 25 17.5 42.5t44.5 17.5z" />
    <glyph glyph-name="uni0157" unicode="&#x157;" horiz-adv-x="405" 
d="M177 318v-318h-91v499h91v-84q31 42 84 67t112 28l8 -92q-56 -3 -115.5 -30.5t-88.5 -69.5zM137 -61q27 0 46 -19.5t19 -56.5q0 -69 -87 -159l-43 35q44 45 60 85q-21 -5 -39 12t-18 43q0 25 17.5 42.5t44.5 17.5z" />
    <glyph glyph-name="Rcaron" unicode="&#x158;" horiz-adv-x="650" 
d="M249 761l-104 147h92l74 -93l74 93h93l-104 -147h-125zM596 0h-110l-172 265h-121v-265h-92v700h254q107 0 171 -59t64 -158q0 -83 -46 -139t-126 -73zM193 609v-257h161q66 0 104 34t38 95q0 60 -38 94t-104 34h-161z" />
    <glyph glyph-name="rcaron" unicode="&#x159;" horiz-adv-x="405" 
d="M180 594l-104 147h92l74 -93l74 93h93l-104 -147h-125zM177 415q31 42 84 67t112 28l8 -92q-56 -3 -115.5 -30.5t-88.5 -69.5v-318h-91v499h91v-84z" />
    <glyph glyph-name="Sacute" unicode="&#x15a;" horiz-adv-x="543" 
d="M284 908h104l-74 -147h-92zM270 -10q-135 0 -229 109l67 64q74 -83 162 -83q56 0 92.5 30.5t36.5 77.5q0 59 -82 103l-119 60q-129 64 -129 175q0 80 57.5 132t148.5 52q121 0 206 -92l-60 -65q-67 68 -146 68q-48 0 -79 -26t-31 -65q0 -54 80 -96l120 -61
q129 -64 129 -183q0 -88 -62.5 -144t-161.5 -56z" />
    <glyph glyph-name="sacute" unicode="&#x15b;" horiz-adv-x="451" 
d="M231 741h104l-74 -147h-92zM229 -10q-113 0 -192 79l58 66q62 -60 134 -60q38 0 61 18t23 47q0 44 -61 65l-74 25q-116 38 -116 137q0 63 44.5 102.5t118.5 39.5q104 0 171 -70l-53 -62q-53 49 -117 49q-32 0 -52 -15.5t-20 -39.5q0 -42 66 -64l66 -21q119 -40 119 -143
q0 -70 -49 -111.5t-127 -41.5z" />
    <glyph glyph-name="Scedilla" unicode="&#x15e;" horiz-adv-x="543" 
d="M494 190q0 -82 -54 -136.5t-142 -62.5l-29 -67q12 3 25 3q40 0 65.5 -26t25.5 -65q0 -43 -28.5 -70t-72.5 -27q-43 0 -72.5 25t-32.5 62l65 8q1 -15 12 -25t27 -10q18 0 29 10.5t11 27.5t-11 28t-29 11q-21 0 -37 -14l-47 18l44 111q-118 11 -202 108l67 64
q74 -83 162 -83q56 0 92.5 30.5t36.5 77.5q0 59 -82 103l-119 60q-129 64 -129 175q0 80 57.5 132t148.5 52q121 0 206 -92l-60 -65q-67 68 -146 68q-48 0 -79 -26t-31 -65q0 -54 80 -96l120 -61q129 -64 129 -183z" />
    <glyph glyph-name="scedilla" unicode="&#x15f;" horiz-adv-x="451" 
d="M405 143q0 -64 -42.5 -105t-112.5 -47l-28 -67q12 3 25 3q40 0 65.5 -26t25.5 -65q0 -43 -28.5 -70t-72.5 -27q-43 0 -72.5 25t-32.5 62l65 8q1 -15 12 -25t27 -10q18 0 29 10.5t11 27.5t-11 28t-29 11q-21 0 -37 -14l-47 18l44 112q-94 12 -159 77l58 66q62 -60 134 -60
q38 0 61 18t23 47q0 44 -61 65l-74 25q-116 38 -116 137q0 63 44.5 102.5t118.5 39.5q104 0 171 -70l-53 -62q-53 49 -117 49q-32 0 -52 -15.5t-20 -39.5q0 -42 66 -64l66 -21q119 -40 119 -143z" />
    <glyph glyph-name="Scaron" unicode="&#x160;" horiz-adv-x="543" 
d="M213 761l-104 147h92l74 -93l74 93h93l-104 -147h-125zM365 373q129 -64 129 -183q0 -88 -62.5 -144t-161.5 -56q-135 0 -229 109l67 64q74 -83 162 -83q56 0 92.5 30.5t36.5 77.5q0 59 -82 103l-119 60q-129 64 -129 175q0 80 57.5 132t148.5 52q121 0 206 -92l-60 -65
q-67 68 -146 68q-48 0 -79 -26t-31 -65q0 -54 80 -96z" />
    <glyph glyph-name="scaron" unicode="&#x161;" horiz-adv-x="451" 
d="M160 594l-104 147h92l74 -93l74 93h93l-104 -147h-125zM286 286q119 -40 119 -143q0 -70 -49 -111.5t-127 -41.5q-113 0 -192 79l58 66q62 -60 134 -60q38 0 61 18t23 47q0 44 -61 65l-74 25q-116 38 -116 137q0 63 44.5 102.5t118.5 39.5q104 0 171 -70l-53 -62
q-53 49 -117 49q-32 0 -52 -15.5t-20 -39.5q0 -42 66 -64z" />
    <glyph glyph-name="uni0162" unicode="&#x162;" horiz-adv-x="576" 
d="M334 0h-18l-32 -76q12 3 25 3q40 0 65.5 -26t25.5 -65q0 -43 -28.5 -70t-72.5 -27q-43 0 -72.5 25t-32.5 62l65 8q1 -15 12 -25t27 -10q18 0 29 10.5t11 27.5t-11 28t-29 11q-21 0 -37 -14l-47 18l47 120h-19v610h-207v90h506v-90h-207v-610z" />
    <glyph glyph-name="uni0163" unicode="&#x163;" horiz-adv-x="504" 
d="M323 -73q40 0 65.5 -26t25.5 -65q0 -43 -28.5 -70t-72.5 -27q-43 0 -72.5 25t-32.5 62l65 8q1 -15 12 -25t27 -10q18 0 29 10.5t11 27.5t-11 28t-29 11q-21 0 -37 -14l-47 18l44 112q-66 10 -104 55.5t-38 118.5v245h-98v88h98v175h91v-175h229v-88h-229v-240
q0 -45 22.5 -68t61.5 -23q50 0 105 52l58 -68q-68 -66 -142 -73l-28 -67q12 3 25 3z" />
    <glyph glyph-name="Tcaron" unicode="&#x164;" horiz-adv-x="576" 
d="M227 761l-104 147h92l74 -93l74 93h93l-104 -147h-125zM35 700h506v-90h-207v-610h-92v610h-207v90z" />
    <glyph glyph-name="tcaron" unicode="&#x165;" horiz-adv-x="509" 
d="M419 576h-68l-6 174h80zM410 132l58 -68q-77 -74 -162 -74q-81 0 -128.5 46.5t-47.5 129.5v245h-98v88h98v175h91v-175h229v-88h-229v-240q0 -45 22.5 -68t61.5 -23q50 0 105 52z" />
    <glyph glyph-name="Tbar" unicode="&#x166;" horiz-adv-x="576" 
d="M541 610h-207v-207h147v-72h-147v-331h-92v331h-147v72h147v207h-207v90h506v-90z" />
    <glyph glyph-name="tbar" unicode="&#x167;" horiz-adv-x="519" 
d="M421 132l58 -68q-77 -74 -162 -74q-81 0 -128.5 46.5t-47.5 129.5v81h-81v72h81v92h-98v88h98v175h91v-175h229v-88h-229v-92h177v-72h-177v-76q0 -45 22.5 -68t61.5 -23q50 0 105 52z" />
    <glyph glyph-name="Umacron" unicode="&#x16a;" horiz-adv-x="741" 
d="M497 874v-80h-252v80h252zM370 -10q-131 0 -209 76.5t-78 204.5v429h92v-430q0 -87 53 -137.5t143 -50.5t142.5 50.5t52.5 137.5v430h92v-429q0 -128 -78.5 -204.5t-209.5 -76.5z" />
    <glyph glyph-name="umacron" unicode="&#x16b;" horiz-adv-x="618" 
d="M427 707v-80h-252v80h252zM440 499h91v-499h-91v66q-58 -76 -169 -76q-89 0 -144.5 56.5t-55.5 159.5v293h91v-287q0 -64 36.5 -98t92.5 -34q45 0 85.5 19.5t63.5 54.5v345z" />
    <glyph glyph-name="Uring" unicode="&#x16e;" horiz-adv-x="741" 
d="M371 733q-59 0 -99.5 37.5t-40.5 92.5t40.5 92.5t99.5 37.5q60 0 100.5 -37.5t40.5 -92.5t-40.5 -92.5t-100.5 -37.5zM371 801q28 0 47 18t19 44q0 27 -19 45t-47 18t-46.5 -18t-18.5 -45q0 -26 18.5 -44t46.5 -18zM370 -10q-131 0 -209 76.5t-78 204.5v429h92v-430
q0 -87 53 -137.5t143 -50.5t142.5 50.5t52.5 137.5v430h92v-429q0 -128 -78.5 -204.5t-209.5 -76.5z" />
    <glyph glyph-name="uring" unicode="&#x16f;" horiz-adv-x="618" 
d="M301 566q-59 0 -99.5 37.5t-40.5 92.5t40.5 92.5t99.5 37.5q60 0 100.5 -37.5t40.5 -92.5t-40.5 -92.5t-100.5 -37.5zM301 759q-28 0 -46.5 -18t-18.5 -45q0 -26 18.5 -44t46.5 -18t47 18t19 44q0 27 -19 45t-47 18zM440 499h91v-499h-91v66q-58 -76 -169 -76
q-89 0 -144.5 56.5t-55.5 159.5v293h91v-287q0 -64 36.5 -98t92.5 -34q45 0 85.5 19.5t63.5 54.5v345z" />
    <glyph glyph-name="Uhungarumlaut" unicode="&#x170;" horiz-adv-x="741" 
d="M300 908h103l-74 -147h-90zM471 908h102l-74 -147h-90zM370 -10q-131 0 -209 76.5t-78 204.5v429h92v-430q0 -87 53 -137.5t143 -50.5t142.5 50.5t52.5 137.5v430h92v-429q0 -128 -78.5 -204.5t-209.5 -76.5z" />
    <glyph glyph-name="uhungarumlaut" unicode="&#x171;" horiz-adv-x="618" 
d="M333 741l-74 -147h-90l61 147h103zM503 741l-74 -147h-90l62 147h102zM440 499h91v-499h-91v66q-58 -76 -169 -76q-89 0 -144.5 56.5t-55.5 159.5v293h91v-287q0 -64 36.5 -98t92.5 -34q45 0 85.5 19.5t63.5 54.5v345z" />
    <glyph glyph-name="Uogonek" unicode="&#x172;" horiz-adv-x="741" 
d="M566 700h92v-429q0 -107 -56 -179t-154 -94q-93 -28 -93 -95q0 -29 17.5 -47.5t48.5 -18.5q16 0 34 5l8 -76q-19 -5 -47 -5q-65 0 -102 33t-37 88q0 64 55 110q-114 11 -181.5 86t-67.5 193v429h92v-430q0 -87 53 -137.5t143 -50.5t142.5 50.5t52.5 137.5v430z" />
    <glyph glyph-name="uogonek" unicode="&#x173;" horiz-adv-x="618" 
d="M531 -158l8 -76q-19 -5 -47 -5q-65 0 -102 33t-37 88q0 83 87 132v52q-58 -76 -169 -76q-89 0 -144.5 56.5t-55.5 159.5v293h91v-287q0 -64 36.5 -98t92.5 -34q45 0 85.5 19.5t63.5 54.5v345h91v-499q-47 -12 -73.5 -37t-26.5 -60q0 -29 17.5 -47.5t48.5 -18.5q16 0 34 5
z" />
    <glyph glyph-name="Wcircumflex" unicode="&#x174;" horiz-adv-x="943" 
d="M471 854l-74 -93h-93l104 147h125l104 -147h-92zM809 700h95l-198 -700h-62l-172 512l-172 -512h-62l-199 700h97l139 -525l161 493h73l160 -494z" />
    <glyph glyph-name="wcircumflex" unicode="&#x175;" horiz-adv-x="816" 
d="M407 687l-74 -93h-93l104 147h125l104 -147h-92zM685 499h97l-150 -499h-89l-135 364l-135 -364h-89l-150 499h100l104 -379l130 369h83l129 -370z" />
    <glyph glyph-name="Ycircumflex" unicode="&#x176;" horiz-adv-x="637" 
d="M318 854l-74 -93h-93l104 147h125l104 -147h-92zM609 700l-244 -365v-335h-92v333l-245 367h112l178 -273l179 273h112z" />
    <glyph glyph-name="ycircumflex" unicode="&#x177;" horiz-adv-x="643" 
d="M315 687l-74 -93h-93l104 147h125l104 -147h-92zM457 499h91v-533q0 -106 -66 -171t-172 -65q-103 0 -171.5 61.5t-75.5 160.5l91 9q6 -63 48.5 -102.5t108.5 -39.5q65 0 105.5 40t40.5 107v123q-57 -74 -168 -74q-89 0 -144.5 57t-55.5 160v267h91v-261q0 -65 36.5 -99
t92.5 -34q44 0 84 19.5t64 53.5v321z" />
    <glyph glyph-name="Ydieresis" unicode="&#x178;" horiz-adv-x="637" 
d="M225 787q-29 0 -47.5 18.5t-18.5 46.5q0 27 19 45.5t47 18.5t47 -18.5t19 -45.5q0 -28 -19 -46.5t-47 -18.5zM417 787q-29 0 -47.5 18.5t-18.5 46.5q0 27 19 45.5t47 18.5t47 -18.5t19 -45.5q0 -28 -19 -46.5t-47 -18.5zM609 700l-244 -365v-335h-92v333l-245 367h112
l178 -273l179 273h112z" />
    <glyph glyph-name="Zacute" unicode="&#x179;" horiz-adv-x="575" 
d="M402 908l-74 -147h-92l62 147h104zM523 700l-325 -609h323v-91h-476l324 609h-308v91h462z" />
    <glyph glyph-name="zacute" unicode="&#x17a;" horiz-adv-x="513" 
d="M371 741l-74 -147h-92l62 147h104zM192 83h274v-83h-421l270 417h-261v82h408z" />
    <glyph glyph-name="Zdotaccent" unicode="&#x17b;" horiz-adv-x="575" 
d="M290 778q-30 0 -49.5 19.5t-19.5 49.5q0 29 19.5 48.5t49.5 19.5t49.5 -19.5t19.5 -48.5q0 -30 -19.5 -49.5t-49.5 -19.5zM523 700l-325 -609h323v-91h-476l324 609h-308v91h462z" />
    <glyph glyph-name="zdotaccent" unicode="&#x17c;" horiz-adv-x="513" 
d="M259 611q-30 0 -49.5 19.5t-19.5 49.5q0 29 19.5 48.5t49.5 19.5t49.5 -19.5t19.5 -48.5q0 -30 -19.5 -49.5t-49.5 -19.5zM192 83h274v-83h-421l270 417h-261v82h408z" />
    <glyph glyph-name="Zcaron" unicode="&#x17d;" horiz-adv-x="575" 
d="M227 761l-104 147h92l74 -93l74 93h93l-104 -147h-125zM523 700l-325 -609h323v-91h-476l324 609h-308v91h462z" />
    <glyph glyph-name="zcaron" unicode="&#x17e;" horiz-adv-x="513" 
d="M196 594l-104 147h92l74 -93l74 93h93l-104 -147h-125zM192 83h274v-83h-421l270 417h-261v82h408z" />
    <glyph glyph-name="uni0218" unicode="&#x218;" horiz-adv-x="543" 
d="M365 373q129 -64 129 -183q0 -88 -62.5 -144t-161.5 -56q-135 0 -229 109l67 64q74 -83 162 -83q56 0 92.5 30.5t36.5 77.5q0 59 -82 103l-119 60q-129 64 -129 175q0 80 57.5 132t148.5 52q121 0 206 -92l-60 -65q-67 68 -146 68q-48 0 -79 -26t-31 -65q0 -54 80 -96z
M278 -61q27 0 46 -19.5t19 -56.5q0 -69 -87 -159l-43 35q44 45 60 85q-21 -5 -39 12t-18 43q0 25 17.5 42.5t44.5 17.5z" />
    <glyph glyph-name="uni0219" unicode="&#x219;" horiz-adv-x="451" 
d="M286 286q119 -40 119 -143q0 -70 -49 -111.5t-127 -41.5q-113 0 -192 79l58 66q62 -60 134 -60q38 0 61 18t23 47q0 44 -61 65l-74 25q-116 38 -116 137q0 63 44.5 102.5t118.5 39.5q104 0 171 -70l-53 -62q-53 49 -117 49q-32 0 -52 -15.5t-20 -39.5q0 -42 66 -64z
M231 -61q27 0 46 -19.5t19 -56.5q0 -69 -87 -159l-43 35q44 45 60 85q-21 -5 -39 12t-18 43q0 25 17.5 42.5t44.5 17.5z" />
    <glyph glyph-name="uni021A" unicode="&#x21a;" horiz-adv-x="576" 
d="M35 700h506v-90h-207v-610h-92v610h-207v90zM293 -61q27 0 46 -19.5t19 -56.5q0 -69 -87 -159l-43 35q44 45 60 85q-21 -5 -39 12t-18 43q0 25 17.5 42.5t44.5 17.5z" />
    <glyph glyph-name="uni021B" unicode="&#x21b;" horiz-adv-x="504" 
d="M468 64q-77 -74 -162 -74q-81 0 -128.5 46.5t-47.5 129.5v245h-98v88h98v175h91v-175h229v-88h-229v-240q0 -45 22.5 -68t61.5 -23q50 0 105 52zM307 -61q27 0 46 -19.5t19 -56.5q0 -69 -87 -159l-43 35q44 45 60 85q-21 -5 -39 12t-18 43q0 25 17.5 42.5t44.5 17.5z" />
    <glyph glyph-name="circumflex" unicode="&#x2c6;" horiz-adv-x="600" 
d="M465 594h-92l-74 93l-74 -93h-93l104 147h125z" />
    <glyph glyph-name="caron" unicode="&#x2c7;" horiz-adv-x="600" 
d="M375 741h93l-104 -147h-125l-104 147h92l74 -93z" />
    <glyph glyph-name="breve" unicode="&#x2d8;" horiz-adv-x="600" 
d="M301 586q-70 0 -113 42.5t-41 110.5l81 4q-1 -39 18.5 -62t54.5 -23q34 0 54 23t19 62l81 -4q2 -68 -41 -110.5t-113 -42.5z" />
    <glyph glyph-name="dotaccent" unicode="&#x2d9;" horiz-adv-x="600" 
d="M302 748q30 0 49.5 -19.5t19.5 -48.5q0 -30 -19.5 -49.5t-49.5 -19.5t-49.5 19.5t-19.5 49.5q0 29 19.5 48.5t49.5 19.5z" />
    <glyph glyph-name="ring" unicode="&#x2da;" horiz-adv-x="600" 
d="M300 566q-59 0 -99.5 37.5t-40.5 92.5t40.5 92.5t99.5 37.5q60 0 100.5 -37.5t40.5 -92.5t-40.5 -92.5t-100.5 -37.5zM300 634q28 0 47 18t19 44q0 27 -19 45t-47 18t-46.5 -18t-18.5 -45q0 -26 18.5 -44t46.5 -18z" />
    <glyph glyph-name="ogonek" unicode="&#x2db;" horiz-adv-x="600" 
d="M261 -239q-65 0 -102 33t-37 88q0 57 42 98.5t116 61.5l20 -42q-47 -12 -73.5 -37t-26.5 -60q0 -29 17.5 -47.5t48.5 -18.5q16 0 34 5l8 -76q-19 -5 -47 -5z" />
    <glyph glyph-name="tilde" unicode="&#x2dc;" horiz-adv-x="600" 
d="M181 589l-67 2q-4 75 24.5 116t80.5 41q37 0 65 -20.5t49.5 -41t42.5 -20.5q46 0 43 81l67 -2q4 -76 -25 -116.5t-81 -40.5q-29 0 -53 13t-38 28t-31 28t-34 13q-46 0 -43 -81z" />
    <glyph glyph-name="hungarumlaut" unicode="&#x2dd;" horiz-adv-x="600" 
d="M229 741h103l-74 -147h-90zM400 741h102l-74 -147h-90z" />
    <glyph glyph-name="gravecomb" unicode="&#x300;" 
d="M-310 741l62 -147h-92l-74 147h104z" />
    <glyph glyph-name="acutecomb" unicode="&#x301;" 
d="M-290 741h104l-74 -147h-92z" />
    <glyph glyph-name="uni0302" unicode="&#x302;" 
d="M-135 594h-92l-74 93l-74 -93h-93l104 147h125z" />
    <glyph glyph-name="tildecomb" unicode="&#x303;" 
d="M-419 589l-67 2q-4 75 24.5 116t80.5 41q37 0 65 -20.5t49.5 -41t42.5 -20.5q46 0 43 81l67 -2q4 -76 -25 -116.5t-81 -40.5q-29 0 -53 13t-38 28t-31 28t-34 13q-46 0 -43 -81z" />
    <glyph glyph-name="uni0304" unicode="&#x304;" 
d="M-174 707v-80h-252v80h252z" />
    <glyph glyph-name="uni0306" unicode="&#x306;" 
d="M-299 586q-70 0 -113 42.5t-41 110.5l81 4q-1 -39 18.5 -62t54.5 -23q34 0 54 23t19 62l81 -4q2 -68 -41 -110.5t-113 -42.5z" />
    <glyph glyph-name="uni0307" unicode="&#x307;" 
d="M-298 748q30 0 49.5 -19.5t19.5 -48.5q0 -30 -19.5 -49.5t-49.5 -19.5t-49.5 19.5t-19.5 49.5q0 29 19.5 48.5t49.5 19.5z" />
    <glyph glyph-name="uni0308" unicode="&#x308;" 
d="M-394 749q28 0 47 -18.5t19 -45.5q0 -28 -19 -46.5t-47 -18.5q-29 0 -47.5 18.5t-18.5 46.5q0 27 19 45.5t47 18.5zM-202 749q28 0 47 -18.5t19 -45.5q0 -28 -19 -46.5t-47 -18.5q-29 0 -47.5 18.5t-18.5 46.5q0 27 19 45.5t47 18.5z" />
    <glyph glyph-name="uni030A" unicode="&#x30a;" 
d="M-300 566q-59 0 -99.5 37.5t-40.5 92.5t40.5 92.5t99.5 37.5q60 0 100.5 -37.5t40.5 -92.5t-40.5 -92.5t-100.5 -37.5zM-300 634q28 0 47 18t19 44q0 27 -19 45t-47 18t-46.5 -18t-18.5 -45q0 -26 18.5 -44t46.5 -18z" />
    <glyph glyph-name="uni030B" unicode="&#x30b;" 
d="M-371 741h103l-74 -147h-90zM-200 741h102l-74 -147h-90z" />
    <glyph glyph-name="uni030C" unicode="&#x30c;" 
d="M-225 741h93l-104 -147h-125l-104 147h92l74 -93z" />
    <glyph glyph-name="uni0312" unicode="&#x312;" 
d="M-295 691q21 5 39 -12t18 -43q0 -25 -17.5 -42.5t-44.5 -17.5t-46 19.5t-19 56.5q0 69 87 159l43 -35q-44 -45 -60 -85z" />
    <glyph glyph-name="uni0326" unicode="&#x326;" 
d="M-298 -61q27 0 46 -19.5t19 -56.5q0 -69 -87 -159l-43 35q44 45 60 85q-21 -5 -39 12t-18 43q0 25 17.5 42.5t44.5 17.5z" />
    <glyph glyph-name="uni0327" unicode="&#x327;" 
d="M-282 -73q40 0 65.5 -26t25.5 -65q0 -43 -28.5 -70t-72.5 -27q-43 0 -72.5 25t-32.5 62l65 8q1 -15 12 -25t27 -10q18 0 29 10.5t11 27.5t-11 28t-29 11q-21 0 -37 -14l-47 18l57 145h56l-43 -101q12 3 25 3z" />
    <glyph glyph-name="uni0328" unicode="&#x328;" 
d="M-339 -239q-65 0 -102 33t-37 88q0 57 42 98.5t116 61.5l20 -42q-47 -12 -73.5 -37t-26.5 -60q0 -29 17.5 -47.5t48.5 -18.5q16 0 34 5l8 -76q-19 -5 -47 -5z" />
    <glyph glyph-name="Wgrave" unicode="&#x1e80;" horiz-adv-x="943" 
d="M462 908l62 -147h-92l-74 147h104zM238 0l-199 700h97l139 -525l161 493h73l160 -494l140 526h95l-198 -700h-62l-172 512l-172 -512h-62z" />
    <glyph glyph-name="wgrave" unicode="&#x1e81;" horiz-adv-x="816" 
d="M460 594h-92l-74 147h104zM685 499h97l-150 -499h-89l-135 364l-135 -364h-89l-150 499h100l104 -379l130 369h83l129 -370z" />
    <glyph glyph-name="Wacute" unicode="&#x1e82;" horiz-adv-x="943" 
d="M482 908h104l-74 -147h-92zM238 0l-199 700h97l139 -525l161 493h73l160 -494l140 526h95l-198 -700h-62l-172 512l-172 -512h-62z" />
    <glyph glyph-name="wacute" unicode="&#x1e83;" horiz-adv-x="816" 
d="M522 741l-74 -147h-92l62 147h104zM685 499h97l-150 -499h-89l-135 364l-135 -364h-89l-150 499h100l104 -379l130 369h83l129 -370z" />
    <glyph glyph-name="Wdieresis" unicode="&#x1e84;" horiz-adv-x="943" 
d="M378 916q28 0 47 -18.5t19 -45.5q0 -28 -19 -46.5t-47 -18.5q-29 0 -47.5 18.5t-18.5 46.5q0 27 19 45.5t47 18.5zM570 916q28 0 47 -18.5t19 -45.5q0 -28 -19 -46.5t-47 -18.5q-29 0 -47.5 18.5t-18.5 46.5q0 27 19 45.5t47 18.5zM238 0l-199 700h97l139 -525l161 493
h73l160 -494l140 526h95l-198 -700h-62l-172 512l-172 -512h-62z" />
    <glyph glyph-name="wdieresis" unicode="&#x1e85;" horiz-adv-x="816" 
d="M314 620q-29 0 -47.5 18.5t-18.5 46.5q0 27 19 45.5t47 18.5t47 -18.5t19 -45.5q0 -28 -19 -46.5t-47 -18.5zM506 620q-29 0 -47.5 18.5t-18.5 46.5q0 27 19 45.5t47 18.5t47 -18.5t19 -45.5q0 -28 -19 -46.5t-47 -18.5zM685 499h97l-150 -499h-89l-135 364l-135 -364
h-89l-150 499h100l104 -379l130 369h83l129 -370z" />
    <glyph glyph-name="Ygrave" unicode="&#x1ef2;" horiz-adv-x="637" 
d="M371 761h-92l-74 147h104zM609 700l-244 -365v-335h-92v333l-245 367h112l178 -273l179 273h112z" />
    <glyph glyph-name="ygrave" unicode="&#x1ef3;" horiz-adv-x="643" 
d="M368 594h-92l-74 147h104zM457 499h91v-533q0 -106 -66 -171t-172 -65q-103 0 -171.5 61.5t-75.5 160.5l91 9q6 -63 48.5 -102.5t108.5 -39.5q65 0 105.5 40t40.5 107v123q-57 -74 -168 -74q-89 0 -144.5 57t-55.5 160v267h91v-261q0 -65 36.5 -99t92.5 -34q44 0 84 19.5
t64 53.5v321z" />
    <glyph glyph-name="endash" unicode="&#x2013;" horiz-adv-x="547" 
d="M483 365v-90h-420v90h420z" />
    <glyph glyph-name="emdash" unicode="&#x2014;" horiz-adv-x="664" 
d="M601 365v-90h-538v90h538z" />
    <glyph glyph-name="quoteleft" unicode="&#x2018;" horiz-adv-x="293" 
d="M149 569q24 5 45.5 -14.5t21.5 -49.5q0 -29 -20.5 -49.5t-51.5 -20.5q-33 0 -55 22.5t-22 65.5q0 82 102 187l51 -40q-51 -53 -71 -101z" />
    <glyph glyph-name="quoteright" unicode="&#x2019;" horiz-adv-x="293" 
d="M149 710q32 0 54.5 -22.5t22.5 -66.5q0 -80 -103 -186l-50 40q53 56 71 101q-25 -6 -46.5 13.5t-21.5 50.5q0 29 21 49.5t52 20.5z" />
    <glyph glyph-name="quotesinglbase" unicode="&#x201a;" horiz-adv-x="328" 
d="M167 127q31 0 52.5 -21.5t21.5 -62.5q0 -77 -99 -176l-48 38q47 47 68 94q-24 -5 -44.5 14t-20.5 48q0 27 20 46.5t50 19.5z" />
    <glyph glyph-name="quotedblleft" unicode="&#x201c;" horiz-adv-x="487" 
d="M169 710l51 -40q-51 -53 -71 -101q24 5 45.5 -14.5t21.5 -49.5q0 -29 -20.5 -49.5t-51.5 -20.5q-33 0 -55 22.5t-22 65.5q0 82 102 187zM343 569q25 5 46.5 -14.5t21.5 -49.5q0 -29 -21 -49.5t-52 -20.5q-32 0 -54 22.5t-22 65.5q0 82 102 187l50 -40q-52 -55 -71 -101z
" />
    <glyph glyph-name="quotedblright" unicode="&#x201d;" horiz-adv-x="487" 
d="M149 710q32 0 54.5 -22.5t22.5 -66.5q0 -80 -103 -186l-50 40q53 56 71 101q-25 -6 -46.5 13.5t-21.5 50.5q0 29 21 49.5t52 20.5zM344 710q32 0 54 -22.5t22 -66.5q0 -81 -102 -186l-50 40q53 56 71 101q-25 -6 -46.5 13.5t-21.5 50.5q0 29 21 49.5t52 20.5z" />
    <glyph glyph-name="quotedblbase" unicode="&#x201e;" horiz-adv-x="523" 
d="M167 127q31 0 52.5 -21.5t21.5 -62.5q0 -77 -99 -176l-48 38q47 47 68 94q-24 -5 -44.5 14t-20.5 48q0 27 20 46.5t50 19.5zM362 127q31 0 52.5 -21.5t21.5 -62.5q0 -77 -99 -176l-49 38q50 50 68 95q-24 -5 -44.5 13.5t-20.5 47.5q0 27 20.5 46.5t50.5 19.5z" />
    <glyph glyph-name="bullet" unicode="&#x2022;" horiz-adv-x="517" 
d="M259 490q72 0 122.5 -49.5t50.5 -120.5t-50.5 -120.5t-122.5 -49.5t-123 50t-51 120t51 120t123 50z" />
    <glyph glyph-name="guilsinglleft" unicode="&#x2039;" horiz-adv-x="320" 
d="M256 493l-113 -173l113 -173l-66 -42l-142 215l142 215z" />
    <glyph glyph-name="guilsinglright" unicode="&#x203a;" horiz-adv-x="320" 
d="M64 493l66 42l142 -215l-142 -215l-66 42l113 173z" />
    <glyph glyph-name="Euro" unicode="&#x20ac;" horiz-adv-x="816" 
d="M710 194l72 -64q-51 -65 -127.5 -102.5t-167.5 -37.5q-125 0 -220 70.5t-128 184.5h-83v69h70q-2 22 -2 35t2 37h-70v69h83q33 114 128.5 184.5t220.5 70.5q83 0 154 -32t121 -88l-66 -69q-77 95 -209 95q-86 0 -152.5 -43.5t-96.5 -117.5h319v-69h-337q-2 -24 -2 -37
t2 -35h285v-69h-267q30 -73 96.5 -117t151.5 -44q70 0 128.5 29.5t94.5 80.5z" />
    <glyph glyph-name="uni2116" unicode="&#x2116;" horiz-adv-x="1271" 
d="M1002 710q93 0 155 -60.5t62 -151.5t-62 -152t-155 -61q-94 0 -156 60.5t-62 152.5q0 90 62.5 151t155.5 61zM686 0h-72l-421 534v-534h-92v700h73l420 -534v534h92v-700zM1002 620q-53 0 -89 -35t-36 -87t36 -87.5t89 -35.5t89 35.5t36 87.5t-36 87t-89 35zM1002 176
q31 0 52 -20.5t21 -50.5q0 -31 -21 -52t-52 -21q-32 0 -53 21t-21 52q0 30 21.5 50.5t52.5 20.5z" />
    <glyph glyph-name="trademark" unicode="&#x2122;" horiz-adv-x="730" 
d="M58 647v53h227v-53h-86v-227h-55v227h-86zM560 700h71v-280h-54v214l-69 -190h-50l-70 188v-212h-54v280h72l77 -194z" />
    <glyph glyph-name="minus" unicode="&#x2212;" horiz-adv-x="547" 
d="M483 365v-90h-420v90h420z" />
    <glyph glyph-name="triagup" unicode="&#x25b2;" horiz-adv-x="660" 
d="M24 108l306 498l306 -498h-612z" />
    <glyph glyph-name="uni25B6" unicode="&#x25b6;" horiz-adv-x="660" 
d="M114 51v612l498 -306z" />
    <glyph glyph-name="triagdn" unicode="&#x25bc;" horiz-adv-x="660" 
d="M330 51l-307 498h613z" />
    <glyph glyph-name="uni25C0" unicode="&#x25c0;" horiz-adv-x="660" 
d="M546 51l-498 306l498 306v-612z" />
    <glyph glyph-name="uni274C" unicode="&#x274c;" horiz-adv-x="794" 
d="M747 636l-286 -286l286 -286l-65 -65l-285 286l-286 -286l-65 65l286 286l-286 286l65 65l286 -287l285 287z" />
    <glyph glyph-name="i.loclTRK" horiz-adv-x="274" 
d="M139 748q30 0 49.5 -19.5t19.5 -48.5q0 -30 -19.5 -49.5t-49.5 -19.5t-49.5 19.5t-19.5 49.5q0 29 19.5 48.5t49.5 19.5zM92 0v499h91v-499h-91z" />
    <glyph glyph-name="y.ss01" horiz-adv-x="568" 
d="M446 499h97l-378 -759h-97l167 335l-210 424h103l158 -322z" />
    <glyph glyph-name="yacute.ss01" horiz-adv-x="568" 
d="M398 741l-74 -147h-92l62 147h104zM446 499h97l-378 -759h-97l167 335l-210 424h103l158 -322z" />
    <glyph glyph-name="ycircumflex.ss01" horiz-adv-x="568" 
d="M283 687l-74 -93h-93l104 147h125l104 -147h-92zM446 499h97l-378 -759h-97l167 335l-210 424h103l158 -322z" />
    <glyph glyph-name="ydieresis.ss01" horiz-adv-x="568" 
d="M190 620q-29 0 -47.5 18.5t-18.5 46.5q0 27 19 45.5t47 18.5t47 -18.5t19 -45.5q0 -28 -19 -46.5t-47 -18.5zM382 620q-29 0 -47.5 18.5t-18.5 46.5q0 27 19 45.5t47 18.5t47 -18.5t19 -45.5q0 -28 -19 -46.5t-47 -18.5zM446 499h97l-378 -759h-97l167 335l-210 424h103
l158 -322z" />
    <glyph glyph-name="ygrave.ss01" horiz-adv-x="568" 
d="M336 594h-92l-74 147h104zM446 499h97l-378 -759h-97l167 335l-210 424h103l158 -322z" />
    <glyph glyph-name="NULL" 
 />
    <glyph glyph-name="CR" horiz-adv-x="323" 
 />
    </font>
</defs>
</svg>
